<svg xmlns="http://www.w3.org/2000/svg" xmlns:xlink="http://www.w3.org/1999/xlink" width="256" height="256" viewBox="0 0 460 460"><svg viewBox="0 0 640 640"><path fill="#00ACC1" d="M0 0h640v640H0z"/><g fill="none" stroke="#FFF" stroke-width="10" stroke-linecap="round" stroke-miterlimit="10"><path d="M318.57 181.33s-5.756 1.38-14.516 3.772"/><path stroke-dasharray="4.5096,18.0383" d="M286.723 190.086c-4.15 1.257-8.494 2.623-12.895 4.078"/><path stroke-dasharray="27.0575,18.0383,4.5096,18.0383" d="M265.292 197.08c-33.323 11.79-64.89 28.006-35.9 40.744 45.693 20.076 189.8 12.817 168.584 47.908"/><path d="M392.198 292.632c-2.986 2.857-6.876 5.947-11.76 9.293"/></g><path fill="#FFF" d="M451.238 98.732c-6.387-3.694-19.923-9.955-27.093-11.67-3.604-.866-5.34-6.492-6.925-9.66-.863-1.73 4.04-7.06 2.89-10.23-5.743-11.01-25.404-14.71-33.886-16.053-8.34-1.317-17.89-1.068-24.782-1.147-10.366-.11-41.443 1.794-41.443 1.794s-31.076-1.905-41.443-1.794c-6.89.08-16.445-.17-24.783 1.146-8.48 1.343-28.14 5.04-33.884 16.05-1.154 3.17 3.752 8.502 2.888 10.23-1.584 3.17-3.32 8.796-6.922 9.66-7.17 1.717-20.708 7.978-27.094 11.672-6.517 3.772-21.324 15.423-22.392 29.975-.36 4.9 8.207 19.23 11.455 23.793 6.85 9.633 32.05 16.372 43.774 17.826 18.546 2.293 55.79-5.45 69.8-8.966 5.03-1.264 19.28-8.874 21.252-13.314 1.75-.55 7.347-.89 7.347-.89s5.6.34 7.35.89c1.97 4.44 16.222 12.05 21.25 13.314 14.01 3.517 51.255 11.26 69.8 8.966 11.723-1.454 36.927-8.193 43.776-17.826 3.248-4.564 11.813-18.895 11.455-23.793-1.068-14.55-15.877-26.203-22.392-29.975zm-144.42-35.3s2.146 8.082-29.236 13.838c-23.06 4.23-45.347-5.763-45.347-5.763s22.286-16.524 74.582-8.075zm-24.233 77.24c-38.378 9.327-44.966 7.375-64.575 4.35-23.165-3.576-33.224-12.398-33.224-12.398s6.713-16.163 30.565-28.43c26.905-13.837 59.926-17.32 98.736-1.558 0 0 5.913 23.052-31.5 38.037zm50.598-77.24c52.296-8.45 74.582 8.075 74.582 8.075S385.48 81.5 362.42 77.27c-31.384-5.756-29.237-13.838-29.237-13.838zm88.806 81.59c-19.607 3.024-26.197 4.976-64.576-4.35-37.415-14.985-31.5-38.038-31.5-38.038 38.81-15.763 71.83-12.28 98.733 1.56C448.5 116.46 455.21 132.62 455.21 132.62s-10.058 8.823-33.22 12.4z"/><path fill="none" stroke="#FFF" stroke-linecap="round" stroke-miterlimit="10" d="M244.26 121.785l66.72-24.592"/><path fill="none" stroke="#FFF" stroke-width=".75" stroke-linecap="round" stroke-miterlimit="10" d="M272.957 68.547l42.805 10.78"/><path fill="none" stroke="#FFF" stroke-linecap="round" stroke-miterlimit="10" d="M395.806 120.593L329.086 96"/><path fill="none" stroke="#FFF" stroke-width=".75" stroke-linecap="round" stroke-miterlimit="10" d="M367.107 67.348L324.31 78.135"/><path fill="#FFF" fill-opacity=".3" d="M300.385 108.373c1.756 7.655-11.52 23.09-39.216 29.412-27.69 6.313-59.31 1.12-61.06-6.536-1.747-7.657 16.46-23.093 44.15-29.413 27.69-6.32 54.383-1.12 56.125 6.536zM300.66 65.69c.17 2.523-11.212 7.25-24.205 8.16-12.994.898-34.017-2.225-34.187-4.74-.183-2.515 16.445-6.53 29.445-7.44 12.987-.897 28.77 1.5 28.947 4.02zM340.035 109.15c-1.752 7.657 11.524 23.093 39.215 29.414 27.69 6.313 59.315 1.12 61.064-6.536 1.74-7.657-16.465-23.093-44.155-29.412-27.69-6.32-54.38-1.12-56.125 6.535zM339.882 66.49c-.174 2.522 11.207 7.25 24.2 8.16 12.993.904 34.016-2.22 34.188-4.74.182-2.516-16.44-6.537-29.44-7.435-12.988-.903-28.77 1.494-28.948 4.016z"/><path fill="#FFF" d="M252.44 114.587c-.08-.767-1.265-1.323-3.04-1.604-.707-.157-1.448-.216-2.22-.21-1.086-.025-2.28.014-3.523.152-4.703.504-8.39 2.076-8.24 3.498.06.537.65.976 1.612 1.283 2.2 1.794 5.88 4.918 5.71 5.75-.243 1.192.93 8.6.93 8.6.137 1.27 2.606 2.037 5.514 1.722s5.16-1.59 5.023-2.855c0-.002 3.013-11.352-1.768-16.336zM271.923 65.194c-.033-.29-.485-.504-1.166-.61-.275-.058-.563-.084-.85-.084-.42-.007-.878.013-1.357.06-1.8.195-3.216.798-3.156 1.34.02.204.248.375.615.492.844.688 2.258 1.887 2.193 2.208-.092.46.353 3.294.353 3.294.054.492.996.786 2.116.668 1.12-.124 1.978-.61 1.925-1.1 0 0 1.16-4.356-.674-6.268zM393.165 114.587c.078-.767 1.266-1.323 3.04-1.604.708-.157 1.453-.216 2.228-.21 1.08-.025 2.27.014 3.52.152 4.704.504 8.384 2.076 8.235 3.498-.06.537-.65.976-1.61 1.283-2.2 1.794-5.88 4.918-5.712 5.75.24 1.192-.93 8.6-.93 8.6-.14 1.27-2.607 2.037-5.515 1.722-2.907-.314-5.16-1.59-5.015-2.855 0-.002-3.018-11.352 1.76-16.336zM366.335 65.194c.026-.29.483-.504 1.164-.61.27-.058.55-.084.852-.084.413-.007.873.013 1.35.06 1.808.195 3.216.798 3.156 1.34-.018.204-.25.375-.615.492-.845.688-2.254 1.887-2.188 2.208.09.46-.358 3.294-.358 3.294-.052.492-1.003.786-2.118.668-1.113-.124-1.98-.61-1.924-1.1-.002 0-1.155-4.356.68-6.268zM333.522 78.685l-6.06-28.076h-14.923l-6.064 28.075-4.257 21.67 8.52 20.795 3.477 26.254h11.564l3.48-26.254 8.52-20.794"/><g><path fill="#FFF" d="M319.572 449.446c36.885 0 66.76-29.958 66.76-66.76 0-37.96-28.998-66.762-66.76-66.762-36.885 0-66.76 29.876-66.76 66.76 0 36.804 29.875 66.762 66.76 66.762zm0 33.38c-44.48 0-133.52 22.28-133.52 66.76v33.382h267.042v-33.38c0-44.482-89.04-66.762-133.522-66.762z"/></g></svg></svg>