<svg xmlns="http://www.w3.org/2000/svg" xmlns:xlink="http://www.w3.org/1999/xlink" width="256" height="256" viewBox="0 0 460 460"><svg width="460" height="460" viewBox="0 0 600 600" preserveAspectRatio="xMinYMin meet"><rect width="100%" height="100%" fill="#5A3E1D"/><path fill="#8A5C29" d="M558.6 463.6c0 52.468-42.532 95-95 95H135.85c-52.468 0-95-42.532-95-95V135.85c0-52.468 42.532-95 95-95H463.6c52.468 0 95 42.532 95 95V463.6z"/><path fill="#5A3E1D" d="M463.026 64.6c39.188 0 70.874 31.685 70.874 70.873v327.553c0 39.188-31.686 70.874-70.874 70.874H135.473c-39.188 0-70.873-31.686-70.873-70.874V135.473c0-39.188 31.685-70.873 70.873-70.873H462.65m.376-47.5H135.473C69.993 17.1 17.1 69.994 17.1 135.473v327.553c0 65.48 52.894 118.374 118.373 118.374h327.553c65.48 0 118.374-52.894 118.374-118.374V135.473c0-65.48-52.894-118.373-118.374-118.373z"/><path fill="#FFF" d="M463.026 64.6c39.188 0 70.874 31.685 70.874 70.873v327.553c0 39.188-31.686 70.874-70.874 70.874H135.473c-39.188 0-70.873-31.686-70.873-70.874V135.473c0-39.188 31.685-70.873 70.873-70.873H462.65m.376-35.15H135.473c-58.67 0-106.023 47.354-106.023 106.023v327.553c0 58.67 47.354 106.024 106.023 106.024h327.553c58.67 0 106.024-47.355 106.024-106.024V135.473c0-58.67-47.355-106.023-106.024-106.023z"/><path fill="none" stroke="#5A3E1D" stroke-width="11.399999999999999" d="M534.85 463.6c0 39.35-31.9 71.25-71.25 71.25H135.85c-39.35 0-71.25-31.9-71.25-71.25V135.85c0-39.35 31.9-71.25 71.25-71.25H463.6c39.35 0 71.25 31.9 71.25 71.25V463.6z"/><g><path fill="#FFF" d="M345.25 484.027c-63.383 0-117.037-16.158-155.164-46.727-41.22-33.047-63.007-80.606-63.007-137.533 0-102.172 83.122-185.294 185.294-185.294 87.7 0 159.048 71.35 159.048 159.047 0 57.22-35.003 106.42-84.725 127.306 3.616 6.668 5.668 14.304 5.668 22.422v13.664c0 26.02-21.095 47.115-47.116 47.115z"/><path fill="#5A3E1D" d="M345.25 479.277c-49.625-.113-100.56-9.95-142.187-38.236-39.176-26.62-63.796-69.045-69.71-115.795-5.58-44.108 4.322-88.61 28.907-125.702 23.132-34.9 58.682-60.827 98.697-72.863 41.667-12.534 87.218-9.4 125.596 11.573 37.04 20.24 64.344 55.657 75.152 96.364 8.486 31.962 6.23 66.48-8.082 96.426-14.16 29.624-39.214 52.86-69.323 65.683-2.464 1.05-2.783 4.432-1.705 6.5 4.175 8 5.02 16.178 5.02 25.012 0 6.83.2 13.468-1.57 20.14-4.86 18.307-22.186 30.643-40.796 30.9-6.122.083-6.13 9.583 0 9.5 22.423-.31 41.752-14.392 49.214-35.474 2.87-8.11 2.65-16.61 2.65-25.068 0-10.56-1.354-20.295-6.314-29.808-.57 2.166-1.137 4.333-1.705 6.5 41.424-17.642 72.58-54.534 83.193-98.27 10.312-42.506-.024-88.99-24.316-124.915-23.588-34.885-60.54-59.688-101.69-68.48-42.172-9.014-87.398-.683-125.037 19.77-36.575 19.872-66.01 52.24-82.81 90.256-18.316 41.44-20.93 89.244-8.37 132.706 12.19 42.19 40.835 77.296 78.34 99.712 40.9 24.446 89.764 32.962 136.844 33.07 6.126.013 6.125-9.487 0-9.5z"/></g><g><path fill="#8A5C29" d="M174.2 299.764c0 85.88 63.94 137.15 171.044 137.15v-13.663c-98.543 0-157.382-46.164-157.382-123.486 0-68.658 55.85-124.506 124.507-124.506 54.186 0 98.267 44.08 98.267 98.268 0 42.573-34.646 77.215-77.216 77.215-33.308 0-60.408-27.1-60.408-60.408 0-25.92 21.058-47.01 46.945-47.01 19.97 0 36.216 16.245 36.216 36.213h13.672c0-27.51-22.38-49.887-49.888-49.887-33.42 0-60.61 27.223-60.61 60.684 0 40.848 33.225 74.08 74.074 74.08 50.113 0 90.88-40.773 90.88-90.886 0-61.72-50.206-111.94-111.93-111.94-76.19 0-138.17 61.987-138.17 138.178z"/><path fill="#5A3E1D" d="M169.45 299.764c.122 35.95 11.893 70.79 37.863 96.29 28.002 27.494 67.204 39.635 105.354 43.903 10.813 1.21 21.7 1.684 32.576 1.708 2.59.006 4.75-2.165 4.75-4.75V423.25c0-2.593-2.16-4.743-4.75-4.75-40.19-.095-83.77-7.417-115.502-33.973-28.094-23.513-39.526-59.492-36.683-95.354 3.375-42.557 31.008-80.152 69.264-98.225 19.287-9.11 42.116-13.042 63.286-10.042 21.087 2.988 40.405 13.388 55.027 28.765 29.584 31.112 35.36 83.21 4 115.07-14.932 15.17-36.635 22.965-57.787 20.896-21.12-2.066-39.346-17.732-46.17-37.494-7.585-21.962.42-45.832 21.696-56.247 10.005-4.898 22.44-5.285 32.365-.133 10.343 5.368 16.477 16.29 16.684 27.773.048 2.588 2.126 4.75 4.75 4.75h13.674c2.563 0 4.784-2.16 4.75-4.75-.28-21.4-12.696-40.935-32.265-49.815-19.667-8.923-43.32-4.83-60.544 7.55-37.122 26.684-33.5 80.81-2.303 110.498 32.428 30.858 83.288 25.83 116.028-1.58 34.138-28.58 41.214-76.882 24.806-116.872-16.284-39.687-53.588-67.087-96.03-71.852-42.344-4.752-85.858 13.19-115.104 43.5-25.46 26.388-39.56 62.226-39.733 98.8-.03 6.127 9.47 6.125 9.5 0 .202-42.785 20.936-83.345 55.677-108.403 34.466-24.857 82.33-33.364 121.763-15.59 39.38 17.752 64.64 58.66 63.074 101.762-1.597 43.957-38.56 79.83-82.037 82.043-21.593 1.098-42.057-7.763-56.384-23.856-14.086-15.824-20.32-39.013-15.114-59.62 5.264-20.84 22.79-36.406 43.564-40.732 21.693-4.516 42.98 6.545 52.074 26.59 2.48 5.465 3.45 11.625 3.526 17.577l4.75-4.75h-13.672l4.75 4.75c-.4-22.14-17.595-39.745-39.64-40.94-21.315-1.157-41.742 13.22-49.4 32.777-7.942 20.285-2.117 43.227 10.946 59.94 13.247 16.948 34.72 25.256 55.868 24 43.926-2.606 77.527-41.027 76.653-84.464-.874-43.26-30.287-81.496-70.935-95.233-40.773-13.78-87.67.497-118.908 28.51-31.518 28.26-46.28 70.937-41.39 112.67 3.893 33.23 20.824 62.198 48.132 81.56 32.37 22.948 74.17 29.553 112.992 29.646l-4.75-4.75v13.665l4.75-4.75c-40.99-.09-83.834-7.35-117.866-31.605-28.857-20.568-45.082-53.075-47.94-88.005-.347-4.255-.474-8.525-.49-12.79-.018-6.127-9.518-6.13-9.497 0z"/></g></svg></svg>