<svg xmlns="http://www.w3.org/2000/svg" xmlns:xlink="http://www.w3.org/1999/xlink" width="256" height="256" viewBox="0 0 460 460"><svg width="460" height="460" viewBox="0 0 720 720"><path fill="#6A0B00" d="M-18-15.5h756v752H-18z"/><path fill="#FFF" d="M67.446 653.34c14.375-1.078 25.39-2.723 33.045-4.93.344-2.258.516-4.822.516-7.692s-.074-5.53-.22-7.985l-26.128-9.494c-1.767-.638-3.09-1.804-3.974-3.497-.883-1.692-1.546-3.912-1.987-6.66-.982-6.035-1.472-10.646-1.472-13.837 0-5.053.122-8.71.368-10.966.392-4.022 2.968-6.746 7.728-8.17 11.138-4.022 24.24-7.334 39.302-9.936l4.49 17.737-9.42 1.325c-9.324 1.375-17.076 2.847-23.258 4.416-.197 1.277-.294 2.945-.294 5.006 0 4.22.098 7.532.294 9.936l27.158 11.924c2.992 1.276 5.005 3.508 6.035 6.697.294.933.44 1.595.44 1.987s-.036 1.24-.11 2.54-.183 3.03-.33 5.187c-.394 5.79-.883 10.758-1.472 14.903-.59 4.147-2.024 6.968-4.305 8.464-2.282 1.497-5.054 2.822-8.317 3.975-3.264 1.152-6.784 2.195-10.562 3.127-6.133 1.423-14.253 2.87-24.36 4.342l-3.164-18.4zM135.966 563.402l18.252-3.385.515 53.064-2.28 55.347-15.53 1.325-.957-106.35zM192.27 594.756c.244 5.054.367 9.3.367 12.732 0 3.435-.074 7.46-.22 12.07l-1.694 48.87-15.676 1.324-1.472-72.643 18.694-2.354zm.588-37.094c.54 1.913.81 4.06.81 6.44 0 2.38-.074 4.392-.22 6.034-.148 1.645-.32 3.178-.516 4.6-.49 3.092-1.056 5.202-1.693 6.33l-16.93-.736c.835-4.316 1.252-11.21 1.252-20.68l17.296-1.988zM265.5 593.946l-.433-33.93L248 563.183v30.176c-7 .933-15 2.355-22.897 4.27l-7.364 1.766c-1.964.688-3.193 2.307-3.683 4.857-2.012 10.55-3.02 21.835-3.02 33.856 0 7.164.442 13.936 1.326 20.312.54 3.78 2.01 5.913 4.415 6.403 3.925 1.08 8.107 2.087 12.55 3.02 14.93 3.132 23.426 4.217 34.046 5.887l.376-15.87 1.75-63.91zm-36.505 40.774c0-5.74.71-13.002 2.135-21.785 5.2-1.962 10.77-3.165 16.707-3.606l.058 45.558c-6.968-1.024-13.077-2.226-18.31-3.607-.395-2.845-.59-8.366-.59-16.56zM284.267 619.41c0-6.573.687-10.376 2.06-11.407 1.374-1.03 2.92-2.072 4.637-3.128 1.717-1.054 3.606-2.097 5.667-3.128 2.062-1.03 4.208-2.01 6.44-2.943 2.233-.932 4.428-1.767 6.588-2.503 4.61-1.568 8.06-2.353 10.34-2.353 2.282 0 4.133.11 5.557.33 1.423.222 2.723.578 3.9 1.068 2.7 1.13 4.22 2.772 4.564 4.93 1.618 10.257 2.428 22.474 2.428 36.653v4.342l-35.253.442v9.567c3.827.932 8.39 1.79 13.69 2.575l12.658 2.06c3.238.492 6.55 1.057 9.936 1.693l-4.343 16.118c-13.494-2.11-27.82-5.52-42.982-10.23-3.484-1.128-5.275-3.164-5.373-6.108l-.515-37.977zm35.622 6.036c0-4.61-.468-9.47-1.4-14.572-1.962 0-3.532.1-4.71.294-1.177.197-2.354.467-3.532.81-1.178.344-2.38.736-3.606 1.178-2.896 1.03-4.81 1.914-5.74 2.65v13.247l18.987-2.06v-1.547zM363.938 663.68c-2.037-.71-3.3-1.25-3.79-1.618s-.935-.847-1.325-1.436c-2.21-3.336-3.803-13.247-4.785-29.733-.246-3.68-.367-7.286-.367-10.82 0-3.53.075-6.807.222-9.824s.342-5.876.588-8.575c.54-6.083 1.03-9.74 1.473-10.966l.883-2.798c.785-2.355 2.576-4.097 5.373-5.226 1.226-.49 2.82-1.055 4.782-1.692l6.477-2.208c2.403-.736 4.905-1.473 7.507-2.208l7.508-2.208c5.053-1.423 9.32-2.503 12.805-3.238l3.975 17.884c-1.227.295-2.723.614-4.488.957l-17.96 3.386-5.077 1.03c-1.473.343-2.576.613-3.312.81-1.373 5.495-2.06 13.468-2.06 23.92 0 13.64.833 23.697 2.5 30.174 2.063.49 4.294.982 6.698 1.472l15.162 3.092 7.14 1.324-4.122 17.002c-4.416-.786-8.44-1.62-12.07-2.503-13.79-3.287-21.702-5.287-23.738-6zM438.604 594.756c.244 5.054.367 9.3.367 12.732 0 3.435-.072 7.46-.22 12.07l-1.692 48.87-15.677 1.324-1.47-72.643 18.694-2.354zm.588-37.094c.54 1.913.81 4.06.81 6.44 0 2.38-.074 4.392-.222 6.034-.146 1.645-.32 3.178-.515 4.6-.49 3.092-1.056 5.202-1.692 6.33l-16.928-.736c.833-4.316 1.25-11.21 1.25-20.68l17.297-1.988zM458.843 598.067l15.677-1.987 2.575 11.188 12.954-11.188h18.103c.932 0 2.232.712 3.9 2.135 2.798 2.307 4.196 4.367 4.196 6.183l-2.577 64.178-16.413 1.324-.294-56.817c-.59-.196-1.398-.295-2.43-.295s-1.975.05-2.833.147c-.858.1-1.778.246-2.76.44-2.307.395-4.195.86-5.667 1.4l-5.446 1.986-1.987 51.078-15.676 1.178-1.324-70.95zM540.463 664.97c-2.7-.885-4.27-2.92-4.71-6.11-.982-6.77-1.473-12.964-1.473-18.583 0-5.618.062-9.79.185-12.512.122-2.724.306-5.36.552-7.912.883-10.646 2.085-16.878 3.606-18.693.784-.98 2.072-1.73 3.863-2.245 1.79-.516 4.195-1.055 7.213-1.62 3.017-.562 6.206-1.103 9.567-1.618 3.36-.516 6.672-.994 9.936-1.436 3.263-.44 6.047-.832 8.354-1.177l2.576 16.56-5.667.59c-10.5 1.08-17.198 1.986-20.093 2.723-.785 3.043-1.325 7.312-1.62 12.806-.294 5.496-.44 9.52-.44 12.07 0 6.33.245 11.065.735 14.205l28.115 5.226-4.343 15.823c-4.023-.64-7.8-1.325-11.334-2.06l-8.905-1.84c-8.047-1.77-13.42-3.167-16.117-4.197zM632.02 627.58c0-7.016-.294-12.144-.883-15.382h-5.152c-2.943 0-5.226.295-6.845.884-2.6.883-4.686 1.692-6.256 2.43l-1.104 52.033-15.97.883c-.148-18.89-.42-33.168-.81-42.834-.59-13.002-.885-24.238-.885-33.708 0-6.378.122-15.824.368-28.336l17.59-3.68.81 46.588 11.702-10.378h16.34c1.814 0 3.482.688 5.004 2.062 2.697 2.502 4.096 4.71 4.194 6.623.098 1.914.147 3.853.147 5.814v5.74c0 6.575-.098 11.285-.294 14.13l-2.28 40.554-16.34 2.723.664-46.146z"/><path fill="none" d="M588.648 447.403c-.603.074-1.194.293-1.71.69l-13.448 10.4c-.516.398-.876.917-1.1 1.48-.44 1.112-.312 2.415.472 3.43.69.892 1.725 1.358 2.77 1.358.748 0 1.502-.237 2.14-.73l13.447-10.4c1.528-1.182 1.81-3.38.627-4.908-.783-1.013-2.012-1.465-3.2-1.32zM465.155 371.614l65.213-50.432c2.423-1.874 5.825-1.803 8.166.172l31.06 26.183L601.025 92.5H118.29l42.162 311h314.52l-11.678-23.89c-1.354-2.77-.575-6.11 1.863-7.996zm-72.425-16.31c-.647 0-1.306-.118-1.945-.368-2.755-1.075-4.117-4.18-3.042-6.935 10.076-25.817 30.18-51.29 56.605-71.727 26.427-20.437 56.138-33.485 83.658-36.742 2.92-.354 5.6 1.752 5.946 4.69s-1.75 5.598-4.688 5.946c-53.095 6.283-112.105 51.92-131.545 101.73-.825 2.114-2.848 3.408-4.99 3.408zm33.618-3.72c-.647 0-1.307-.117-1.945-.367-2.755-1.075-4.117-4.18-3.042-6.935 6.808-17.44 20.36-34.626 38.158-48.39 17.8-13.767 37.842-22.56 56.432-24.757 2.938-.35 5.6 1.75 5.946 4.688.348 2.937-1.752 5.6-4.688 5.946-34.658 4.1-73.18 33.89-85.87 66.405-.827 2.117-2.85 3.41-4.99 3.41zm31.812-6.153c-2.755-1.074-4.117-4.18-3.042-6.934 7.023-18 27.555-33.877 46.74-36.146 2.937-.353 5.6 1.75 5.946 4.688s-1.752 5.6-4.688 5.946c-15.087 1.784-32.498 15.25-38.02 29.403-.826 2.116-2.85 3.41-4.99 3.41-.648.002-1.306-.116-1.946-.366z"/><path fill="none" d="M567.697 362.94l-33.528-28.263-56.873 43.98L489.44 403.5l8.798 18 29.282 59.903 94.248-72.885-37.644-31.732"/><path fill="#FFF" d="M465.095 342.39c5.523-14.155 22.935-27.62 38.02-29.404 2.938-.347 5.037-3.01 4.69-5.946s-3.01-5.042-5.947-4.688c-19.186 2.268-39.717 18.145-46.74 36.146-1.075 2.755.287 5.86 3.042 6.935.64.25 1.298.368 1.945.368 2.142 0 4.165-1.295 4.99-3.41z"/><path fill="#FFF" d="M517.207 281.77c2.937-.347 5.036-3.01 4.688-5.946-.348-2.937-3.008-5.04-5.946-4.688-18.59 2.2-38.632 10.99-56.433 24.756-17.8 13.765-31.35 30.95-38.157 48.39-1.075 2.756.287 5.86 3.042 6.936.64.25 1.298.368 1.945.368 2.142 0 4.163-1.294 4.99-3.41 12.69-32.516 51.212-62.306 85.87-66.406z"/><path fill="#FFF" d="M529.265 250.166c2.938-.348 5.036-3.01 4.688-5.947s-3.025-5.044-5.946-4.69c-27.52 3.258-57.23 16.306-83.658 36.743-26.428 20.437-46.53 45.91-56.606 71.728-1.075 2.756.287 5.86 3.042 6.936.64.25 1.298.368 1.945.368 2.143 0 4.165-1.294 4.99-3.41 19.44-49.81 78.45-95.445 131.545-101.728z"/><path fill="#FFF" d="M651.16 416.293l-65.138-54.91L619.165 92.5H622c6.903 0 12.5-5.596 12.5-12.5s-5.597-12.5-12.5-12.5H97c-6.904 0-12.5 5.596-12.5 12.5S90.096 92.5 97 92.5h3.12l42.44 313H140c-4.418 0-8 3.582-8 8s3.582 8 8 8h195v67.55l-60.228 31.606c-2.445 1.283-3.387 4.306-2.104 6.75.894 1.705 2.632 2.68 4.432 2.68.783 0 1.578-.186 2.32-.574l65.904-34.584c.533-.28.98-.653 1.362-1.074.456.855 1.163 1.59 2.087 2.074l65.904 34.584c.74.39 1.536.573 2.32.573 1.798 0 3.536-.974 4.43-2.678 1.284-2.445.342-5.468-2.103-6.75L355 487.9V421.5h128.768l44.096 90.21c.858 1.757 2.46 3.033 4.364 3.477.49.114.983.17 1.476.17 1.426 0 2.827-.47 3.977-1.358l113.27-87.595c1.554-1.2 2.48-3.04 2.522-5.005.04-1.964-.81-3.84-2.31-5.107zM160.45 403.5l-42.162-311h482.738l-31.43 255.037-31.062-26.183c-2.34-1.975-5.743-2.045-8.166-.172l-65.213 50.432c-2.438 1.886-3.217 5.226-1.863 7.996l11.678 23.89H160.45zm430.77 50.132l-13.448 10.4c-.637.492-1.39.73-2.138.73-1.047 0-2.082-.467-2.77-1.36-.785-1.013-.912-2.315-.473-3.427.225-.564.585-1.083 1.1-1.48l13.45-10.4c.515-.398 1.106-.617 1.71-.69 1.186-.147 2.415.305 3.198 1.318 1.182 1.528.9 3.726-.628 4.91zm-63.7 27.77L498.238 421.5l-8.8-18-12.142-24.842 56.872-43.98 33.528 28.26 16.427 13.848 37.644 31.73-94.247 72.887z"/></svg></svg>