<svg xmlns="http://www.w3.org/2000/svg" width="256" height="256" viewBox="0 0 460 460"><rect width="100%" height="100%" fill="#323232"/><g fill="#f3f3f3"><path d="M250.903 197.064c-.15-.472-.677-.858-1.172-.858h-5.98c-.496 0-1.022.387-1.17.86l-.82 2.62c-.146.472-.673.86-1.168.86h-4.266c-.495 0-.76-.38-.586-.845l8.01-21.537c.17-.465.718-.844 1.213-.844h3.54c.495 0 1.042.378 1.216.842l8.07 21.54c.173.463-.09.843-.584.843h-4.3c-.494 0-1.022-.386-1.17-.858l-.833-2.623zm-6.425-6.04c-.147.472.136.858.63.858h3.264c.495 0 .777-.386.63-.858l-2-6.34c-.15-.47-.393-.47-.54 0l-1.984 6.34zM261.498 200.544c-.495 0-.9-.405-.9-.9V178.22c0-.496.405-.9.9-.9h5.785c.495 0 1.304.035 1.797.078 0 0 2.167.19 3.503.734 1.338.543 2.49 1.305 3.453 2.29.965.983 1.72 2.158 2.26 3.524.537 1.366.805 2.87.805 4.506v.073c0 .495-.033 1.304-.075 1.798 0 0-.193 2.256-.73 3.617-.54 1.36-1.295 2.53-2.26 3.51-.963.978-2.11 1.74-3.436 2.28-1.327.543-2.778.813-4.35.813h-6.752zm5.677-18.902c-.495 0-.9.405-.9.9v12.796c0 .495.405.9.9.9h.173c.495 0 1.297-.08 1.783-.175 0 0 1.998-.395 2.87-1.54.872-1.143 1.31-2.84 1.31-5.097v-.105c0-.494-.046-1.3-.1-1.794 0 0-.338-3.04-1.21-4.177-.873-1.14-2.146-1.708-3.818-1.708h-1.007zM304.294 188.51c0 .496-.03 1.305-.066 1.798 0 0-.185 2.474-.694 3.887-.507 1.413-1.215 2.616-2.126 3.606-.91.99-1.996 1.747-3.25 2.274-1.257.526-2.634.79-4.134.79-1.52 0-2.914-.264-4.18-.79-1.267-.527-2.357-1.285-3.267-2.273-.912-.99-1.62-2.192-2.13-3.605-.505-1.413-.76-3.01-.76-4.784v-.04c0-.496.03-1.305.067-1.8 0 0 .184-2.472.686-3.886.503-1.414 1.208-2.616 2.12-3.605.91-.99 1.996-1.75 3.26-2.283 1.26-.53 2.652-.797 4.173-.797 1.497 0 2.88.266 4.14.797 1.262.533 2.347 1.293 3.26 2.282.91.988 1.622 2.19 2.134 3.604s.768 3.01.768 4.785v.04zm-5.774.827c0-.495-.04-1.303-.087-1.796 0 0-.304-3.162-1.085-4.36-.78-1.195-1.9-1.793-3.356-1.793-1.52 0-2.656.598-3.404 1.794-.752 1.198-1.127 2.95-1.127 5.257v.074c0 .496.04 1.304.087 1.797 0 0 .298 3.13 1.064 4.352.766 1.22 1.904 1.832 3.414 1.832 1.444 0 2.555-.607 3.33-1.826.778-1.218 1.166-2.97 1.166-5.255v-.073zM310.462 200.544c-.495 0-.9-.405-.9-.9V178.22c0-.496.405-.9.9-.9h6.658c.495 0 1.304.018 1.8.04 0 0 1.858.09 3.008.348 1.148.26 2.12.657 2.918 1.19s1.406 1.198 1.83 2.002c.42.802.628 1.746.628 2.83 0 .534-.058 1.046-.18 1.54-.117.495-.307.96-.574 1.397-.262.435-.605.827-1.026 1.173-.42.345-.933.63-1.534.852.698.18 1.294.442 1.777.782.485.34.878.734 1.18 1.18s.52.93.657 1.444c.135.515.203 1.04.203 1.57 0 2.3-.743 4.02-2.232 5.16-1.488 1.145-3.693 1.715-6.615 1.715h-8.498zm4.777-14.442c0 .495.404.9.9.9h1.16c.495 0 1.302-.044 1.795-.1 0 0 1.228-.135 1.756-.57.53-.436.795-1.08.795-1.93 0-.98-.285-1.684-.858-2.114-.572-.432-1.493-.647-2.766-.647h-1.88c-.495 0-.9.406-.9.9v3.562zm.9 4.568c-.496 0-.9.405-.9.9v3.768c0 .495.404.9.9.9h1.92c.495 0 1.304-.027 1.798-.058 0 0 .16-.01.564-.15.404-.137.734-.326.986-.566.254-.24.44-.518.56-.837.12-.32.177-.666.177-1.037 0-.446-.053-.85-.162-1.213s-.28-.666-.52-.918c-.235-.25-.542-.444-.92-.582-.377-.138-.835-.207-1.376-.207h-3.028zM345.536 189.803c0 .495-.405.9-.9.9h-7.13c-.495 0-.9.405-.9.9v3.735c0 .495.405.9.9.9h8.746c.495 0 .9.405.9.9v2.506c0 .495-.405.9-.9.9h-14.426c-.495 0-.9-.405-.9-.9V178.22c0-.496.405-.9.9-.9h14.459c.495 0 .9.404.9.9v2.522c0 .495-.405.9-.9.9h-8.78c-.495 0-.9.405-.9.9v3.098c0 .495.405.9.9.9h7.13c.495 0 .9.405.9.9v2.363zM252.64 232.257c0 .495-.405.9-.9.9h-7.13c-.494 0-.9.405-.9.9v3.735c0 .495.406.9.9.9h8.746c.495 0 .9.405.9.9v2.507c0 .494-.405.9-.9.9h-14.423c-.495 0-.9-.406-.9-.9v-21.427c0-.495.405-.9.9-.9h14.456c.494 0 .9.405.9.9v2.526c0 .494-.406.9-.9.9h-8.78c-.494 0-.9.404-.9.9v3.094c0 .495.406.9.9.9h7.13c.495 0 .9.405.9.9v2.363zM266.51 226.69c.222.442.584.442.805 0l3.046-6.11c.222-.444.808-.807 1.303-.807h4.685c.495 0 .7.352.454.782l-5.69 9.955c-.245.43-.244 1.133.004 1.56l5.86 10.15c.248.43.045.78-.45.78h-4.75c-.494 0-1.08-.363-1.304-.805l-3.153-6.257c-.224-.442-.587-.442-.81 0l-3.154 6.257c-.223.442-.81.804-1.305.804h-4.734c-.495 0-.698-.352-.45-.78l5.846-10.15c.247-.428.25-1.13.004-1.56l-5.676-9.955c-.245-.43-.04-.782.454-.782h4.67c.496 0 1.082.362 1.303.805l3.044 6.11zM286.625 235.12c-.495 0-.9.405-.9.9v6.08c0 .495-.405.9-.9.9h-3.878c-.495 0-.9-.405-.9-.9v-21.427c0-.495.405-.9.9-.9h7.6c.494 0 1.303.03 1.796.066 0 0 1.79.13 2.92.525 1.133.394 2.09.94 2.88 1.642.786.7 1.39 1.534 1.812 2.496.42.963.63 2.012.63 3.15 0 1.128-.21 2.15-.63 3.064-.423.915-1.026 1.698-1.812 2.35-.79.656-1.747 1.16-2.88 1.518-1.13.356-2.404.534-3.817.534h-2.82zm-.9-5.223c0 .495.405.9.9.9h1.922c.495 0 1.304-.028 1.797-.063 0 0 .206-.015.632-.17.424-.153.776-.368 1.05-.644.276-.278.477-.608.608-.99.13-.385.194-.797.194-1.246 0-.477-.065-.93-.194-1.363-.13-.43-.332-.808-.607-1.138-.275-.33-.627-.594-1.05-.79-.428-.198-.937-.295-1.53-.295h-2.822c-.495 0-.9.405-.9.9v4.9zM315.437 232.257c0 .495-.405.9-.9.9h-7.13c-.494 0-.9.405-.9.9v3.735c0 .495.406.9.9.9h8.748c.495 0 .9.405.9.9v2.507c0 .494-.405.9-.9.9H301.73c-.494 0-.9-.406-.9-.9v-21.427c0-.495.406-.9.9-.9h14.458c.495 0 .9.405.9.9v2.526c0 .494-.405.9-.9.9h-8.78c-.495 0-.9.404-.9.9v3.094c0 .495.405.9.9.9h7.13c.494 0 .9.405.9.9v2.363zM330.083 235.604c-.224-.44-.812-.802-1.307-.802h-1.272c-.495 0-.9.405-.9.9v6.397c0 .494-.405.9-.9.9h-3.878c-.495 0-.9-.406-.9-.9v-21.427c0-.495.405-.9.9-.9h7.468c.495 0 1.304.024 1.8.054 0 0 1.688.1 2.79.402 1.1.302 2.038.748 2.815 1.338.774.59 1.37 1.323 1.784 2.194.416.873.623 1.88.623 3.03 0 .892-.097 1.69-.29 2.384-.196.696-.475 1.308-.834 1.836-.36.525-.796.983-1.302 1.37-.505.387-1.067.727-1.68 1.013l4.496 8.567c.23.438.418.85.418.916s-.405.12-.9.12h-4.28c-.494 0-1.083-.36-1.306-.803l-3.345-6.59zm-3.48-6.025c0 .494.405.9.9.9h1.79c.495 0 1.3-.06 1.79-.133 0 0 1-.15 1.547-.706.543-.558.815-1.335.815-2.337 0-.998-.275-1.783-.825-2.353-.55-.57-1.358-.85-2.427-.85h-2.69c-.495 0-.9.404-.9.9v4.58zM348.585 242.1c0 .495-.405.9-.9.9h-3.86c-.496 0-.9-.405-.9-.9v-21.427c0-.495.404-.9.9-.9h3.86c.495 0 .9.405.9.9V242.1zM368.697 232.257c0 .495-.405.9-.9.9h-7.13c-.495 0-.9.405-.9.9v3.735c0 .495.405.9.9.9h8.748c.495 0 .9.405.9.9v2.507c0 .494-.405.9-.9.9h-14.423c-.495 0-.9-.406-.9-.9v-21.427c0-.495.405-.9.9-.9h14.455c.495 0 .9.405.9.9v2.526c0 .494-.405.9-.9.9h-8.78c-.494 0-.9.404-.9.9v3.094c0 .495.406.9.9.9h7.13c.496 0 .9.405.9.9v2.363zM393.856 242.1c0 .495-.405.9-.9.9h-3.846c-.495 0-1.102-.35-1.35-.78l-7.445-12.894c-.247-.43-.45-.374-.45.12v12.655c0 .496-.405.9-.9.9h-3.88c-.494 0-.9-.404-.9-.9v-21.427c0-.495.406-.9.9-.9h3.88c.495 0 1.103.35 1.35.78l7.43 12.893c.247.43.45.375.45-.12v-12.653c0-.495.405-.9.9-.9h3.862c.495 0 .9.405.9.9V242.1zM417.16 235.136c.494 0 .844.4.777.89 0 0-.196 1.43-.67 2.438-.476 1.003-1.133 1.864-1.974 2.584-.84.718-1.85 1.275-3.024 1.673-1.177.4-2.492.6-3.946.6-1.575 0-2.98-.26-4.215-.782-1.237-.52-2.282-1.268-3.14-2.24-.857-.974-1.508-2.16-1.957-3.558-.448-1.4-.67-2.97-.67-4.714v-.36c0-.494.027-1.303.062-1.797 0 0 .17-2.42.642-3.818.47-1.4 1.137-2.586 2.003-3.565.87-.978 1.913-1.73 3.13-2.257 1.22-.526 2.58-.79 4.08-.79 1.528 0 2.885.21 4.066.63 1.18.42 2.18 1.003 3 1.746.82.746 1.462 1.628 1.927 2.648.463 1.02.75 2.13.853 3.334h-4.76c-.494 0-.935-.403-.98-.897 0 0-.028-.325-.185-.825-.157-.5-.4-.914-.735-1.245-.334-.33-.76-.578-1.28-.75-.514-.168-1.152-.254-1.905-.254-.703 0-1.313.128-1.83.383-.515.254-.948.658-1.294 1.212-.343.552-.6 1.268-.767 2.145-.167.878-.252 1.934-.252 3.167v.392c0 .495.014 1.305.03 1.8 0 0 .045 1.388.198 2.26.15.872.39 1.587.718 2.145.33.56.762.967 1.295 1.22.53.256 1.187.383 1.966.383 1.302 0 2.3-.302 2.99-.91.69-.604 1.057-1.568 1.1-2.887h4.743zM435.35 232.257c0 .495-.405.9-.9.9h-7.13c-.494 0-.9.405-.9.9v3.735c0 .495.406.9.9.9h8.747c.495 0 .9.405.9.9v2.507c0 .494-.405.9-.9.9h-14.424c-.495 0-.9-.406-.9-.9v-21.427c0-.495.405-.9.9-.9H436.1c.495 0 .9.405.9.9v2.526c0 .494-.405.9-.9.9h-8.778c-.495 0-.9.404-.9.9v3.094c0 .495.405.9.9.9h7.13c.494 0 .9.405.9.9v2.363zM238.685 284.68c-.495 0-.9-.404-.9-.9v-21.423c0-.495.405-.9.9-.9h5.787c.495 0 1.303.036 1.796.08 0 0 2.166.19 3.505.733 1.336.54 2.487 1.306 3.453 2.29.964.983 1.715 2.157 2.256 3.525.54 1.366.81 2.868.81 4.506v.073c0 .495-.035 1.303-.078 1.797 0 0-.193 2.257-.732 3.617-.54 1.362-1.292 2.53-2.256 3.51-.966.98-2.11 1.74-3.437 2.28-1.327.544-2.778.814-4.35.814h-6.755zm5.677-18.9c-.495 0-.9.404-.9.9v12.794c0 .495.405.9.9.9h.175c.495 0 1.297-.078 1.783-.175 0 0 1.994-.395 2.867-1.54.875-1.142 1.312-2.842 1.312-5.096v-.105c0-.496-.046-1.303-.1-1.795 0 0-.338-3.04-1.213-4.178-.873-1.14-2.145-1.707-3.816-1.707h-1.008zM276.146 273.94c0 .494-.405.9-.9.9h-7.13c-.494 0-.9.404-.9.9v3.733c0 .495.406.9.9.9h8.748c.495 0 .9.405.9.9v2.508c0 .496-.405.9-.9.9H262.44c-.495 0-.9-.404-.9-.9v-21.423c0-.495.405-.9.9-.9h14.455c.495 0 .9.405.9.9v2.522c0 .494-.405.9-.9.9h-8.778c-.495 0-.9.404-.9.9v3.096c0 .495.405.9.9.9h7.13c.494 0 .9.405.9.9v2.363zM292.222 278.508c0-.36-.05-.69-.153-.98-.103-.292-.307-.57-.608-.83-.302-.26-.725-.518-1.27-.774-.543-.255-1.26-.526-2.143-.813-1.036-.34-2.033-.723-2.993-1.148-.96-.425-1.812-.93-2.556-1.515-.742-.583-1.34-1.266-1.785-2.05-.448-.78-.67-1.693-.67-2.735 0-1 .224-1.9.678-2.704.454-.803 1.082-1.485 1.892-2.05.81-.563 1.768-.998 2.872-1.306 1.105-.31 2.31-.465 3.614-.465 1.286 0 2.465.17 3.545.51 1.077.342 2.006.825 2.782 1.45.776.63 1.384 1.387 1.82 2.275.436.888.654 1.88.654 2.974h-4.76c-.494 0-.93-.376-.967-.837l-.135-.367c-.135-.367-.34-.68-.615-.94-.276-.26-.615-.468-1.02-.615-.403-.15-.88-.223-1.43-.223-.54 0-1.013.06-1.424.18-.41.126-.754.295-1.027.512-.276.218-.483.47-.623.75-.14.282-.21.582-.21.9 0 .352.1.668.3.95.2.282.483.548.856.798.37.25.825.484 1.36.702.532.218 1.135.433 1.802.645 1.25.395 2.367.83 3.348 1.31.982.478 1.81 1.025 2.484 1.642.675.62 1.185 1.314 1.538 2.09.35.775.524 1.653.524 2.632 0 1.042-.208 1.97-.622 2.783-.415.812-1.002 1.494-1.763 2.048-.76.553-1.676.974-2.75 1.26-1.074.287-2.27.43-3.584.43-.808 0-1.61-.065-2.41-.198s-1.56-.337-2.288-.615c-.73-.277-1.407-.624-2.038-1.044-.63-.42-1.175-.92-1.634-1.507-.457-.584-.82-1.25-1.082-1.994-.265-.744-.397-1.575-.397-2.49h4.795c.495 0 .93.405.965.9 0 0 .026.353.21.816.182.463.45.837.807 1.124.356.288.792.492 1.302.614.51.124 1.102.183 1.77.183.542 0 1-.06 1.384-.183.384-.122.697-.286.947-.494.248-.207.43-.45.54-.727.115-.273.17-.567.17-.875zM306.863 283.78c0 .496-.405.9-.9.9H302.1c-.494 0-.9-.404-.9-.9v-21.423c0-.495.406-.9.9-.9h3.863c.495 0 .9.405.9.9v21.424zM330.87 280.91c0 .495-.296 1.178-.657 1.517 0 0-.067.064-.606.435-.54.373-1.197.718-1.974 1.037-.775.318-1.674.58-2.69.79-1.022.207-2.167.31-3.44.31-1.574 0-2.997-.248-4.27-.75-1.272-.5-2.36-1.226-3.267-2.185-.906-.956-1.604-2.134-2.094-3.534-.49-1.397-.736-3-.736-4.808v-.392c0-.495.03-1.304.065-1.798 0 0 .184-2.516.68-3.92.496-1.404 1.19-2.587 2.08-3.55.888-.96 1.948-1.692 3.176-2.193 1.23-.5 2.58-.75 4.045-.75 1.63 0 3.026.194 4.19.582 1.164.388 2.136.933 2.91 1.633.777.704 1.37 1.537 1.78 2.506.41.968.674 2.032.794 3.19h-4.567c-.495 0-.98-.396-1.078-.882 0 0-.04-.202-.22-.648-.177-.446-.424-.824-.743-1.133-.318-.308-.713-.543-1.18-.703-.47-.16-1.034-.24-1.69-.24-.68 0-1.3.145-1.853.432-.554.286-1.03.72-1.416 1.3s-.687 1.305-.898 2.178c-.21.872-.314 1.892-.314 3.06v.425c0 .494.04 1.303.09 1.795 0 0 .31 3.165 1.113 4.33.803 1.163 2.07 1.746 3.793 1.746.453 0 .857-.03 1.214-.088.355-.06.667-.135.938-.232.27-.094.5-.2.687-.32.19-.115.343-.226.462-.333v-2.705c0-.495-.405-.9-.9-.9h-2.147c-.495 0-.9-.405-.9-.9v-2.045c0-.495.405-.9.9-.9h7.824c.496 0 .9.405.9.9v7.743zM354.615 283.78c0 .496-.405.9-.9.9h-3.845c-.495 0-1.102-.35-1.35-.778l-7.445-12.893c-.247-.43-.45-.376-.45.12v12.652c0 .495-.405.9-.9.9h-3.88c-.494 0-.9-.405-.9-.9v-21.425c0-.495.406-.9.9-.9h3.88c.495 0 1.103.35 1.35.78l7.432 12.892c.246.428.45.373.45-.122v-12.65c0-.496.404-.9.9-.9h3.86c.494 0 .9.404.9.9v21.423z"/><g><path d="M170.772 177h-41.855l-54 53.984.3.295 2.985 3.07L128.917 285h33.29l-54.003-53.998 29.518-29.522h33.065c12.255 0 23.167 13.117 23.167 29.504 0 16.45-9.513 30.267-22.34 30.13l-6.882.005-6.548-.002L182.047 285c4.198-.985 8.93-2.617 13.012-5.356 14.873-9.98 23.102-29.057 23.102-48.66 0-30.014-21.58-53.984-47.39-53.984M21.88 177l44.164 44.163 16.56-16.567L55.01 177M55 285l27.532-27.53-16.564-16.56L21.878 285"/></g></g></svg>