<?xml version="1.0" encoding="utf-8"?>
<!-- Generated by IcoMoon.io -->
<!DOCTYPE svg PUBLIC "-//W3C//DTD SVG 1.1//EN" "http://www.w3.org/Graphics/SVG/1.1/DTD/svg11.dtd">
<svg version="1.1" xmlns="http://www.w3.org/2000/svg" xmlns:xlink="http://www.w3.org/1999/xlink" width="256" height="256" viewBox="0 0 460 460">
	<svg viewBox="0 0 640 640" id="drone-you-eye">
                <g>
                    <rect fill="#00ACC1" width="640" height="640" /><!-- 
                    <linearGradient id="SVGID_1_" gradientUnits="userSpaceOnUse" x1="319.9995" y1="0" x2="319.9995" y2="640.0005">
                        <stop offset="0" style="stop-color:#FFFFFF" />
                        <stop offset="1" style="stop-color:#000000" />
                    </linearGradient>
                    <rect opacity="0.4" fill="url(#SVGID_1_)" width="640" height="640" /> -->
                </g>
                <g id="Drone" display="none">
                    <g display="inline">
                        <path fill="#FFFFFF" d="M262.769,123.353c-1.029,0-1.995-0.632-2.373-1.654c-0.481-1.309,0.188-2.763,1.499-3.246l50.304-18.542
      c1.306-0.483,2.763,0.188,3.247,1.499c0.481,1.309-0.188,2.763-1.499,3.247l-50.304,18.539
      C263.354,123.303,263.06,123.353,262.769,123.353z" />
                        <path fill="#FFFFFF" d="M316.677,90.708c-0.156,0-0.311-0.018-0.467-0.057l-32.271-8.127c-1.015-0.257-1.629-1.286-1.375-2.303
      c0.257-1.018,1.309-1.635,2.304-1.375l32.271,8.128c1.015,0.256,1.63,1.286,1.375,2.303
      C318.297,90.135,317.524,90.708,316.677,90.708z" />
                        <path fill="#FFFFFF" d="M377.027,122.454c-0.291,0-0.587-0.049-0.874-0.158l-50.307-18.539c-1.311-0.484-1.979-1.936-1.498-3.247
      c0.486-1.311,1.957-1.977,3.246-1.499l50.307,18.542c1.309,0.484,1.979,1.936,1.496,3.247
      C379.022,121.822,378.055,122.454,377.027,122.454z" />
                        <path fill="#FFFFFF" d="M323.118,89.81c-0.846,0-1.619-0.573-1.836-1.432c-0.255-1.018,0.36-2.047,1.375-2.304l32.269-8.133
      c1.032-0.249,2.044,0.361,2.301,1.375c0.257,1.017-0.359,2.046-1.372,2.304l-32.27,8.132
      C323.43,89.792,323.274,89.81,323.118,89.81z" />
                        <g>
                            <path opacity="0.3" fill="#FFFFFF" d="M305.086,110.711c1.318,5.772-8.688,17.411-29.568,22.176
        c-20.877,4.761-44.72,0.845-46.038-4.928c-1.316-5.773,12.409-17.411,33.289-22.176
        C283.646,101.019,303.77,104.939,305.086,110.711z" />
                        </g>
                        <g>
                            <path opacity="0.3" fill="#FFFFFF" d="M305.288,78.532c0.134,1.901-8.449,5.466-18.248,6.152
        c-9.794,0.677-25.645-1.679-25.776-3.575c-0.136-1.896,12.399-4.923,22.198-5.609C293.257,74.823,305.157,76.631,305.288,78.532z
        " />
                        </g>
                        <g>
                            <path opacity="0.3" fill="#FFFFFF" d="M334.978,111.299c-1.319,5.772,8.69,17.411,29.566,22.175
        c20.878,4.761,44.723,0.845,46.041-4.928c1.313-5.772-12.413-17.411-33.291-22.176
        C356.417,101.606,336.295,105.527,334.978,111.299z" />
                        </g>
                        <g>
                            <path opacity="0.3" fill="#FFFFFF" d="M334.863,79.134c-0.133,1.901,8.448,5.466,18.245,6.153
        c9.797,0.682,25.647-1.674,25.775-3.575c0.139-1.896-12.394-4.928-22.195-5.604C346.896,75.426,334.997,77.233,334.863,79.134z" />
                        </g>
                        <path fill="#FFFFFF" d="M268.934,115.397c-0.059-0.577-0.951-0.997-2.292-1.209c-0.533-0.119-1.094-0.163-1.676-0.157
      c-0.819-0.021-1.716,0.009-2.656,0.113c-3.546,0.38-6.323,1.565-6.208,2.637c0.042,0.405,0.487,0.736,1.213,0.968
      c1.662,1.353,4.437,3.708,4.308,4.335c-0.185,0.898,0.699,6.483,0.699,6.483c0.104,0.958,1.965,1.536,4.157,1.298
      c2.195-0.236,3.889-1.199,3.788-2.152C270.267,127.713,272.538,119.155,268.934,115.397z" />
                        <path fill="#FFFFFF" d="M283.621,78.156c-0.022-0.217-0.362-0.38-0.878-0.459c-0.203-0.044-0.42-0.064-0.642-0.064
      c-0.313-0.005-0.659,0.009-1.02,0.044c-1.361,0.148-2.425,0.602-2.38,1.012c0.018,0.153,0.188,0.281,0.464,0.371
      c0.64,0.519,1.701,1.422,1.652,1.664c-0.069,0.346,0.269,2.484,0.269,2.484c0.04,0.37,0.753,0.592,1.595,0.503
      c0.842-0.094,1.492-0.459,1.452-0.83C284.132,82.882,285.006,79.598,283.621,78.156z" />
                        <path fill="#FFFFFF" d="M375.037,115.397c0.06-0.577,0.953-0.997,2.291-1.209c0.534-0.119,1.097-0.163,1.679-0.157
      c0.815-0.021,1.714,0.009,2.657,0.113c3.545,0.38,6.32,1.565,6.207,2.637c-0.045,0.405-0.489,0.736-1.215,0.968
      c-1.659,1.353-4.435,3.708-4.306,4.335c0.183,0.898-0.701,6.483-0.701,6.483c-0.104,0.958-1.966,1.536-4.158,1.298
      c-2.191-0.236-3.891-1.199-3.782-2.152C373.709,127.713,371.433,119.155,375.037,115.397z" />
                        <path fill="#FFFFFF" d="M354.807,78.156c0.021-0.217,0.366-0.38,0.88-0.459c0.202-0.044,0.415-0.064,0.642-0.064
      c0.312-0.005,0.656,0.009,1.018,0.044c1.362,0.148,2.424,0.602,2.38,1.012c-0.015,0.153-0.188,0.281-0.464,0.371
      c-0.638,0.519-1.699,1.422-1.649,1.664c0.069,0.346-0.272,2.484-0.272,2.484c-0.039,0.37-0.755,0.592-1.594,0.503
      c-0.84-0.094-1.491-0.459-1.452-0.83C354.294,82.882,353.425,79.598,354.807,78.156z" />
                        <path fill="#FFFFFF" d="M418.821,103.443c-4.814-2.786-15.021-7.506-20.428-8.799c-2.716-0.652-4.024-4.894-5.22-7.284
      c-0.651-1.304,3.047-5.323,2.178-7.712c-4.33-8.301-19.153-11.091-25.548-12.103c-6.286-0.992-13.49-0.805-18.685-0.864
      c-5.359-0.058-18.054,0.52-25.509,0.938L325.494,67h-5.622h-5.622l-0.117,0.619c-7.455-0.419-20.15-1.036-25.508-0.979
      c-5.195,0.06-12.396-0.108-18.685,0.884c-6.396,1.012-21.22,3.812-25.548,12.113c-0.869,2.39,2.827,6.414,2.175,7.717
      c-1.195,2.39-2.501,6.634-5.217,7.286c-5.407,1.293-15.613,6.015-20.428,8.8c-4.913,2.844-16.08,11.629-16.882,22.601
      c-0.269,3.694,6.187,14.498,8.634,17.94c5.165,7.264,24.164,12.345,33.005,13.441c12.708,1.571,37.32-3.107,49.32-5.964v-7.214
      c0-2.75,2.262-5.245,5.006-5.245h7.924l4.572-5h15.001l4.572,5h7.918c2.751,0,5.007,2.495,5.007,5.245v7.239
      c12,2.864,36.444,7.481,49.067,5.921c8.839-1.096,27.837-6.168,33.002-13.432c2.449-3.442,8.907-14.242,8.635-17.936
      C434.899,115.067,423.735,106.287,418.821,103.443z M309.932,76.828c0,0,1.617,6.093-22.045,10.434
      c-17.384,3.189-34.187-4.346-34.187-4.346S270.503,70.458,309.932,76.828z M291.66,135.065
      c-28.931,7.032-33.901,5.56-48.682,3.279c-17.468-2.696-25.052-9.347-25.052-9.347s5.063-12.187,23.044-21.435
      c18.25-9.388,40.239-12.449,65.777-4.313l-0.279,1.419l6.086,14.858C309.447,124.635,303.375,130.374,291.66,135.065z
       M329.812,76.828c39.429-6.37,56.231,6.088,56.231,6.088s-16.803,7.535-34.189,4.346
      C328.192,82.921,329.812,76.828,329.812,76.828z M396.769,138.344c-14.783,2.281-19.751,3.753-48.687-3.279
      c-11.715-4.691-17.786-10.43-20.893-15.54l6.089-14.858l-0.279-1.42c25.539-8.135,47.524-5.074,65.774,4.314
      c17.983,9.249,23.045,21.435,23.045,21.435S414.234,135.647,396.769,138.344z" />
                    </g>
                </g>
                <g>
                    <g>
                        <path fill="none" stroke="#FFFFFF" stroke-width="10" stroke-linecap="round" stroke-miterlimit="10" d="M318.571,181.331
      c0,0-5.757,1.38-14.517,3.771" />
                        <path fill="none" stroke="#FFFFFF" stroke-width="10" stroke-linecap="round" stroke-miterlimit="10" stroke-dasharray="4.5096,18.0383" d="
      M286.723,190.086c-4.149,1.257-8.494,2.623-12.895,4.078" />
                        <path fill="none" stroke="#FFFFFF" stroke-width="10" stroke-linecap="round" stroke-miterlimit="10" stroke-dasharray="27.0575,18.0383,4.5096,18.0383" d="
      M265.292,197.081c-33.323,11.789-64.89,28.005-35.899,40.743c45.692,20.076,189.8,12.817,168.583,47.908" />
                        <path fill="none" stroke="#FFFFFF" stroke-width="10" stroke-linecap="round" stroke-miterlimit="10" d="M392.198,292.632
      c-2.986,2.857-6.876,5.947-11.761,9.293" />
                    </g>
                </g>
                <g id="Drone_1_">
                    <path fill="#FFFFFF" d="M451.238,98.732c-6.387-3.694-19.923-9.955-27.093-11.671c-3.604-0.865-5.34-6.491-6.925-9.66
    c-0.863-1.729,4.041-7.06,2.89-10.23c-5.743-11.01-25.404-14.708-33.886-16.052c-8.339-1.316-17.891-1.067-24.782-1.146
    c-10.366-0.111-41.443,1.794-41.443,1.794s-31.075-1.905-41.442-1.794c-6.89,0.079-16.445-0.17-24.783,1.146
    c-8.48,1.344-28.141,5.042-33.884,16.052c-1.154,3.17,3.752,8.501,2.888,10.23c-1.584,3.169-3.32,8.795-6.922,9.66
    c-7.171,1.716-20.708,7.977-27.094,11.671c-6.517,3.772-21.324,15.423-22.392,29.975c-0.36,4.899,8.207,19.229,11.455,23.793
    c6.85,9.633,32.051,16.372,43.774,17.826c18.547,2.293,55.792-5.449,69.801-8.966c5.03-1.264,19.281-8.874,21.252-13.314
    c1.749-0.55,7.347-0.89,7.347-0.89s5.601,0.34,7.35,0.89c1.97,4.441,16.223,12.051,21.251,13.314
    c14.009,3.517,51.255,11.259,69.801,8.966c11.722-1.454,36.926-8.193,43.775-17.826c3.248-4.564,11.813-18.895,11.455-23.793
    C472.562,114.156,457.753,102.504,451.238,98.732z M306.817,63.432c0,0,2.147,8.082-29.235,13.838
    c-23.06,4.231-45.347-5.763-45.347-5.763S254.521,54.983,306.817,63.432z M282.585,140.673
    c-38.378,9.326-44.966,7.374-64.575,4.349c-23.165-3.576-33.224-12.398-33.224-12.398s6.713-16.163,30.565-28.429
    c26.904-13.838,59.925-17.322,98.735-1.559C314.086,102.635,319.999,125.688,282.585,140.673z M333.183,63.432
    c52.296-8.449,74.582,8.075,74.582,8.075s-22.286,9.994-45.346,5.763C331.036,71.514,333.183,63.432,333.183,63.432z
     M421.989,145.021c-19.606,3.025-26.196,4.977-64.575-4.349c-37.415-14.985-31.5-38.038-31.5-38.038
    c38.81-15.763,71.83-12.28,98.733,1.559c23.853,12.267,30.564,28.429,30.564,28.429S445.152,141.445,421.989,145.021z" />
                    <line fill="none" stroke="#FFFFFF" stroke-linecap="round" stroke-miterlimit="10" x1="244.259" y1="121.785" x2="310.981" y2="97.193" />
                    <line fill="none" stroke="#FFFFFF" stroke-width="0.75" stroke-linecap="round" stroke-miterlimit="10" x1="272.957" y1="68.547" x2="315.762" y2="79.327" />
                    <line fill="none" stroke="#FFFFFF" stroke-linecap="round" stroke-miterlimit="10" x1="395.806" y1="120.593" x2="329.085" y2="96" />
                    <line fill="none" stroke="#FFFFFF" stroke-width="0.75" stroke-linecap="round" stroke-miterlimit="10" x1="367.107" y1="67.348" x2="324.309" y2="78.135" />
                    <path fill="#FFFFFF" fill-opacity="0.3" d="M300.385,108.373c1.756,7.655-11.52,23.091-39.216,29.412
    c-27.69,6.313-59.309,1.12-61.058-6.536c-1.748-7.656,16.458-23.092,44.148-29.412C271.949,95.517,298.643,100.716,300.385,108.373
    z" />
                    <path fill="#FFFFFF" fill-opacity="0.3" d="M300.66,65.691c0.171,2.522-11.212,7.25-24.205,8.16
    c-12.994,0.897-34.017-2.226-34.187-4.742c-0.183-2.514,16.445-6.529,29.445-7.439C284.7,60.773,300.483,63.17,300.66,65.691z" />
                    <path fill="#FFFFFF" fill-opacity="0.3" d="M340.035,109.151c-1.752,7.656,11.524,23.092,39.215,29.413
    c27.69,6.313,59.315,1.12,61.064-6.536c1.74-7.657-16.465-23.093-44.155-29.412C368.469,96.295,341.781,101.496,340.035,109.151z" />
                    <path fill="#FFFFFF" fill-opacity="0.3" d="M339.882,66.491c-0.174,2.521,11.207,7.25,24.2,8.16
    c12.993,0.903,34.016-2.22,34.188-4.742c0.182-2.515-16.439-6.536-29.439-7.434C355.842,61.572,340.061,63.969,339.882,66.491z" />
                    <path fill="#FFFFFF" d="M252.439,114.587c-0.078-0.767-1.264-1.323-3.039-1.604c-0.707-0.157-1.448-0.216-2.219-0.209
    c-1.087-0.026-2.28,0.013-3.524,0.151c-4.703,0.504-8.39,2.076-8.239,3.498c0.059,0.537,0.648,0.976,1.611,1.283
    c2.201,1.794,5.881,4.918,5.711,5.75c-0.243,1.192,0.93,8.6,0.93,8.6c0.137,1.271,2.606,2.037,5.514,1.722s5.161-1.591,5.023-2.855
    C254.207,130.921,257.22,119.571,252.439,114.587z" />
                    <path fill="#FFFFFF" d="M271.923,65.194c-0.033-0.289-0.485-0.504-1.166-0.609c-0.275-0.059-0.563-0.085-0.851-0.085
    c-0.419-0.007-0.877,0.013-1.356,0.059c-1.801,0.196-3.216,0.799-3.156,1.342c0.02,0.203,0.248,0.374,0.615,0.491
    c0.845,0.688,2.259,1.887,2.194,2.208c-0.092,0.459,0.353,3.294,0.353,3.294c0.054,0.492,0.996,0.786,2.116,0.668
    c1.119-0.124,1.978-0.609,1.925-1.1C272.597,71.461,273.756,67.106,271.923,65.194z" />
                    <path fill="#FFFFFF" d="M393.165,114.587c0.078-0.767,1.266-1.323,3.041-1.604c0.707-0.157,1.452-0.216,2.227-0.209
    c1.081-0.026,2.271,0.013,3.521,0.151c4.703,0.504,8.383,2.076,8.234,3.498c-0.06,0.537-0.649,0.976-1.61,1.283
    c-2.201,1.794-5.881,4.918-5.712,5.75c0.241,1.192-0.931,8.6-0.931,8.6c-0.138,1.271-2.606,2.037-5.514,1.722
    c-2.908-0.314-5.161-1.591-5.016-2.855C391.406,130.921,388.387,119.571,393.165,114.587z" />
                    <path fill="#FFFFFF" d="M366.335,65.194c0.026-0.289,0.483-0.504,1.164-0.609c0.271-0.059,0.551-0.085,0.853-0.085
    c0.413-0.007,0.873,0.013,1.349,0.059c1.809,0.196,3.217,0.799,3.157,1.342c-0.018,0.203-0.249,0.374-0.615,0.491
    c-0.845,0.688-2.254,1.887-2.188,2.208c0.091,0.459-0.358,3.294-0.358,3.294c-0.052,0.492-1.003,0.786-2.118,0.668
    c-1.112-0.124-1.978-0.609-1.923-1.1C365.654,71.461,364.501,67.106,366.335,65.194z" />
                    <polygon fill="#FFFFFF" points="333.522,78.685 327.461,50.609 319.999,50.609 312.54,50.609 306.476,78.685 302.219,100.356 
    310.739,121.15 314.217,147.404 319.999,147.404 325.782,147.404 329.262,121.15 337.782,100.356   " />
                </g>
                <g display="none">
                    <g display="inline">
                        <path fill="#FFFFFF" d="M253.239,382.686c0,36.803,29.876,66.761,66.761,66.761V315.925
      C283.115,315.925,253.239,345.801,253.239,382.686z" />
                    </g>
                    <g display="inline">
                        <path fill="#FFFFFF" d="M186,549.587V583h134V482.826C275.521,482.826,186,505.106,186,549.587z" />
                    </g>
                    <path display="inline" fill="#2E3535" d="M387.761,382.686c0-36.885-29.876-66.761-66.761-66.761v133.521
    C357.885,449.446,387.761,419.488,387.761,382.686z" />
                    <path display="inline" fill="#2E3535" d="M455,549.587c0-44.48-89.52-66.761-134-66.761V583h134V549.587z" />
                    <path display="inline" fill="#F2F2F2" d="M378.979,382.686c0-36.885-26.394-66.761-58.979-66.761v133.521
    C352.585,449.446,378.979,419.488,378.979,382.686z" />
                    <path display="inline" fill="#F2F2F2" d="M438,549.587c0-44.48-78.704-66.761-118-66.761V583h118V549.587z" />
                </g>
                <g>
                    <path fill="#FFFFFF" d="M319.572,449.446c36.885,0,66.76-29.958,66.76-66.761c0-37.959-28.998-66.761-66.76-66.761
    c-36.885,0-66.761,29.876-66.761,66.761C252.811,419.488,282.687,449.446,319.572,449.446z M319.572,482.826
    c-44.479,0-133.521,22.28-133.521,66.761v33.381h267.043v-33.381C453.094,505.106,364.053,482.826,319.572,482.826z" />
                </g>
            </svg>
</svg>