<svg xmlns="http://www.w3.org/2000/svg" xmlns:xlink="http://www.w3.org/1999/xlink" id="Layer_1" width="460" height="460" x="0" y="0" enable-background="new 0 0 460 460" version="1.1" viewBox="0 0 460 460" xml:space="preserve"><g><defs><rect id="SVGID_1_" width="460" height="460"/></defs><clipPath id="SVGID_2_"><use overflow="visible" xlink:href="#SVGID_1_"/></clipPath><rect width="460" height="460" fill="#333" clip-path="url(#SVGID_2_)"/><circle cx="230" cy="230" r="183" fill="none" stroke="#EFEFEF" stroke-miterlimit="10" stroke-width="4" clip-path="url(#SVGID_2_)"/><circle cx="168" cy="152" r="24" fill="#44AAE8" clip-path="url(#SVGID_2_)"/><circle cx="456" cy="149" r="24" fill="#61BC2B" clip-path="url(#SVGID_2_)"/><circle cx="144" cy="7" r="24" fill="#44AAE8" clip-path="url(#SVGID_2_)"/><circle cx="35" cy="136" r="24" fill="#E8E6E8" clip-path="url(#SVGID_2_)"/><circle cx="424" cy="345" r="16" fill="#C1E6F8" clip-path="url(#SVGID_2_)"/><circle cx="240" cy="176" r="16" fill="#44AAE8" clip-path="url(#SVGID_2_)"/><circle cx="384" cy="240" r="16" fill="#C1E6F8" clip-path="url(#SVGID_2_)"/><circle cx="112" cy="336" r="16" fill="#44AAE8" clip-path="url(#SVGID_2_)"/><circle cx="256" cy="72" r="16" fill="#C1E6F8" clip-path="url(#SVGID_2_)"/><circle cx="128" cy="112" r="16" fill="#44AAE8" clip-path="url(#SVGID_2_)"/><circle cx="304" cy="368" r="16" fill="#ABDCF6" clip-path="url(#SVGID_2_)"/><circle cx="27" cy="429" r="16" fill="#C13229" clip-path="url(#SVGID_2_)"/><circle cx="59" cy="376" r="16" fill="#F1CF30" clip-path="url(#SVGID_2_)"/><circle cx="352" cy="413" r="16" fill="#E9467C" clip-path="url(#SVGID_2_)"/><circle cx="144" cy="208" r="16" fill="#ABDCF6" clip-path="url(#SVGID_2_)"/><circle cx="288" cy="256" r="16" fill="#C1E6F8" clip-path="url(#SVGID_2_)"/><circle cx="368" cy="40" r="16" fill="#F2CE31" clip-path="url(#SVGID_2_)"/><circle cx="224" cy="304" r="16" fill="#44AAE8" clip-path="url(#SVGID_2_)"/><circle cx="160" cy="289" r="32" fill="#44AAE8" clip-path="url(#SVGID_2_)"/><circle cx="352" cy="160" r="32" fill="#44AAE8" clip-path="url(#SVGID_2_)"/><circle cx="3" cy="368" r="32" fill="#E6AAAB" clip-path="url(#SVGID_2_)"/><circle cx="120" cy="452" r="32" fill="#E8E6E8" clip-path="url(#SVGID_2_)"/><circle cx="67" cy="56" r="32" fill="#C23329" clip-path="url(#SVGID_2_)"/><circle cx="400" cy="452" r="32" fill="#44AAE8" clip-path="url(#SVGID_2_)"/><circle cx="240" cy="368" r="32" fill="#44AAE8" clip-path="url(#SVGID_2_)"/><circle cx="224" cy="112" r="32" fill="#ABDCF6" clip-path="url(#SVGID_2_)"/><circle cx="304" cy="112" r="32" fill="#44AAE8" clip-path="url(#SVGID_2_)"/><circle cx="424" cy="15" r="32" fill="#44AAE8" clip-path="url(#SVGID_2_)"/><circle cx="280" cy="312" r="24" fill="#44AAE8" clip-path="url(#SVGID_2_)"/><circle cx="160" cy="361" r="24" fill="#57BBF0" clip-path="url(#SVGID_2_)"/><circle cx="88" cy="280" r="24" fill="#ABDCF6" clip-path="url(#SVGID_2_)"/><circle cx="328" cy="232" r="24" fill="#44AAE8" clip-path="url(#SVGID_2_)"/><circle cx="344" cy="329" r="24" fill="#C1E6F8" clip-path="url(#SVGID_2_)"/><circle cx="413" cy="96" r="24" fill="#EB5C33" clip-path="url(#SVGID_2_)"/><circle cx="296" cy="184" r="24" fill="#44AAE8" clip-path="url(#SVGID_2_)"/><circle cx="320" cy="7" r="24" fill="#E9467C" clip-path="url(#SVGID_2_)"/><circle cx="0" cy="281" r="24" fill="#99D789" clip-path="url(#SVGID_2_)"/><circle cx="308" cy="460" r="24" fill="#F2CE31" clip-path="url(#SVGID_2_)"/><circle cx="88" cy="200" r="24" fill="#57BBF0" clip-path="url(#SVGID_2_)"/><circle cx="344" cy="280" r="8" fill="#44AAE8" clip-path="url(#SVGID_2_)"/><circle cx="136" cy="248" r="8" fill="#ABDCF6" clip-path="url(#SVGID_2_)"/><circle cx="184" cy="248" r="8" fill="#44AAE8" clip-path="url(#SVGID_2_)"/><circle cx="232" cy="265" r="8" fill="#44AAE8" clip-path="url(#SVGID_2_)"/><circle cx="184" cy="200" r="8" fill="#44AAE8" clip-path="url(#SVGID_2_)"/><circle cx="432" cy="282" r="8" fill="#F2CE31" clip-path="url(#SVGID_2_)"/><circle cx="437" cy="400" r="8" fill="#E6AAAB" clip-path="url(#SVGID_2_)"/><circle cx="240" cy="444" r="8" fill="#44AAE8" clip-path="url(#SVGID_2_)"/><circle cx="181" cy="436" r="8" fill="#61BC2B" clip-path="url(#SVGID_2_)"/><circle cx="432" cy="219" r="8" fill="#E9467C" clip-path="url(#SVGID_2_)"/><circle cx="264" cy="23" r="8" fill="#E6AAAB" clip-path="url(#SVGID_2_)"/><circle cx="216" cy="24" r="8" fill="#F2CE31" clip-path="url(#SVGID_2_)"/><circle cx="120" cy="47" r="8" fill="#E8E7E6" clip-path="url(#SVGID_2_)"/><circle cx="11" cy="31" r="8" fill="#61BC2B" clip-path="url(#SVGID_2_)"/><circle cx="104" cy="152" r="8" fill="#C1E6F8" clip-path="url(#SVGID_2_)"/><circle cx="192" cy="329" r="8" fill="#44AAE8" clip-path="url(#SVGID_2_)"/><circle cx="19" cy="218" r="8" fill="#44AAE8" clip-path="url(#SVGID_2_)"/><circle cx="43" cy="322" r="8" fill="#44AAE8" clip-path="url(#SVGID_2_)"/><circle cx="72" cy="421" r="8" fill="#44AAE8" clip-path="url(#SVGID_2_)"/><circle cx="312" cy="296" r="8" fill="#57BBF0" clip-path="url(#SVGID_2_)"/><circle cx="264" cy="136" r="8" fill="#44AAE8" clip-path="url(#SVGID_2_)"/><circle cx="181" cy="72" r="8" fill="#57BBF0" clip-path="url(#SVGID_2_)"/><circle cx="376" cy="296" r="8" fill="#57BBF0" clip-path="url(#SVGID_2_)"/></g><text fill="#EFEFEF" font-family="'Trebuchet MS'" font-size="36.776" transform="matrix(1 0 0 1 192 240)">YOU</text></svg>