<?xml version="1.0" encoding="utf-8"?>
<!-- Generated by IcoMoon.io -->
<!DOCTYPE svg PUBLIC "-//W3C//DTD SVG 1.1//EN" "http://www.w3.org/Graphics/SVG/1.1/DTD/svg11.dtd">
<svg version="1.1" xmlns="http://www.w3.org/2000/svg" xmlns:xlink="http://www.w3.org/1999/xlink" width="256" height="256" viewBox="0 0 460 460">
	<svg width="460px" height="460px" viewBox="0 0 600 600" preserveAspectRatio="xMinYMin meet" id="hcs">
                <rect width="100%" height="100%" fill="#5A3E1D"></rect>
                <g transform="scale(.95) translate(15,15)">
                    <g>
                        <path fill="#8A5C29" d="M573,473c0,55.229-44.771,100-100,100H128c-55.229,0-100-44.771-100-100V128C28,72.771,72.771,28,128,28
    h345c55.229,0,100,44.771,100,100V473z" />
                        <path fill="#5A3E1D" d="M472.396,53C513.646,53,547,86.353,547,127.603v344.793c0,41.25-33.354,74.604-74.604,74.604H127.603
    C86.353,547,53,513.646,53,472.396V127.603C53,86.353,86.353,53,127.603,53H472 M472.396,3H127.603C58.678,3,3,58.678,3,127.603
    v344.793C3,541.322,58.678,597,127.603,597h344.793C541.322,597,597,541.322,597,472.396V127.603C597,58.678,541.322,3,472.396,3
    L472.396,3z" />
                        <path fill="#FFFFFF" d="M472.396,53C513.646,53,547,86.353,547,127.603v344.793c0,41.25-33.354,74.604-74.604,74.604H127.603
    C86.353,547,53,513.646,53,472.396V127.603C53,86.353,86.353,53,127.603,53H472 M472.396,16H127.603
    C65.846,16,16,65.846,16,127.603v344.793C16,534.153,65.846,584,127.603,584h344.793C534.153,584,584,534.153,584,472.396V127.603
    C584,65.846,534.153,16,472.396,16L472.396,16z" />
                        <path fill="none" stroke="#5A3E1D" stroke-width="12" d="M548,473c0,41.422-33.578,75-75,75H128c-41.421,0-75-33.578-75-75V128
    c0-41.421,33.579-75,75-75h345c41.422,0,75,33.579,75,75V473z" />
                    </g>
                    <g id="XMLID_1_">
                        <g>
                            <g>
                                <g>
                                    <path fill="#FFFFFF" d="M348.42,494.502c-66.718,0-123.196-17.008-163.33-49.186c-43.389-34.787-66.323-84.849-66.323-144.772
          c0-107.549,87.498-195.046,195.048-195.046c92.315,0,167.419,75.104,167.419,167.418c0,60.232-36.846,112.02-89.184,134.006
          c3.806,7.019,5.966,15.057,5.966,23.602v14.383C398.016,472.297,375.811,494.502,348.42,494.502z" />
                                    <g>
                                        <path fill="#5A3E1D" d="M348.42,489.502c-52.236-0.119-105.852-10.474-149.67-40.248
            c-41.237-28.021-67.153-72.68-73.378-121.891c-5.873-46.429,4.549-93.274,30.428-132.318
            c24.349-36.736,61.771-64.028,103.892-76.698c43.86-13.193,91.808-9.895,132.206,12.182
            c38.989,21.307,67.73,58.587,79.107,101.436c8.933,33.644,6.559,69.979-8.507,101.501
            c-14.904,31.183-41.278,55.643-72.972,69.14c-2.593,1.104-2.929,4.666-1.794,6.841c4.394,8.424,5.283,17.031,5.283,26.33
            c0,7.188,0.212,14.177-1.652,21.199C386.248,476.247,368.01,489.233,348.42,489.502c-6.443,0.089-6.452,10.089,0,10
            c23.604-0.324,43.951-15.148,51.805-37.34c3.021-8.536,2.791-17.485,2.791-26.387c0-11.117-1.427-21.363-6.648-31.377
            c-0.598,2.28-1.196,4.561-1.794,6.841c43.604-18.57,76.401-57.403,87.571-103.441c10.855-44.743-0.025-93.674-25.595-131.49
            c-24.83-36.721-63.727-62.829-107.042-72.085c-44.392-9.487-91.999-0.718-131.619,20.811
            c-38.499,20.919-69.483,54.991-87.169,95.007c-19.279,43.622-22.032,93.942-8.811,139.692
            c12.834,44.409,42.986,81.364,82.464,104.96c43.052,25.732,94.489,34.697,144.047,34.811
            C354.869,499.517,354.868,489.517,348.42,489.502z" />
                                    </g>
                                </g>
                            </g>
                        </g>
                    </g>
                    <g>
                        <path fill="#8A5C29" d="M168.367,300.541c0,90.4,67.308,144.37,180.048,144.37v-14.384c-103.73,0-165.665-48.594-165.665-129.986
    c0-72.272,58.788-131.059,131.059-131.059c57.039,0,103.44,46.401,103.44,103.44c0,44.814-36.469,81.279-81.28,81.279
    c-35.062,0-63.588-28.528-63.588-63.588c0-27.285,22.166-49.486,49.416-49.486c21.021,0,38.122,17.101,38.122,38.12h14.392
    c0-28.957-23.557-52.512-52.514-52.512c-35.179,0-63.801,28.656-63.801,63.878c0,42.998,34.975,77.979,77.973,77.979
    c52.75,0,95.664-42.919,95.664-95.67c0-64.969-52.85-117.832-117.824-117.832C233.609,155.09,168.367,220.34,168.367,300.541z" />
                        <g>
                            <path fill="#5A3E1D" d="M163.367,300.541c0.13,37.843,12.52,74.516,39.857,101.359c29.476,28.94,70.741,41.72,110.899,46.213
      c11.382,1.273,22.843,1.772,34.291,1.798c2.726,0.006,5-2.279,5-5c0-4.795,0-9.589,0-14.384c0-2.73-2.274-4.993-5-5
      c-42.307-0.101-88.178-7.808-121.581-35.762c-29.574-24.75-41.608-62.623-38.615-100.372
      c3.552-44.797,32.64-84.371,72.909-103.395c20.301-9.591,44.332-13.729,66.616-10.571c22.197,3.146,42.532,14.093,57.923,30.279
      c31.141,32.749,37.221,87.588,4.21,121.125c-15.717,15.968-38.562,24.174-60.828,21.996c-22.232-2.174-41.416-18.665-48.6-39.467
      c-7.984-23.118,0.442-48.244,22.838-59.207c10.532-5.156,23.62-5.563,34.069-0.14c10.887,5.65,17.344,17.148,17.562,29.234
      c0.049,2.725,2.237,5,5,5c4.797,0,9.595,0,14.392,0c2.698,0,5.036-2.274,5-5c-0.295-22.526-13.364-43.089-33.963-52.436
      c-20.701-9.393-45.599-5.085-63.729,7.947c-39.076,28.088-35.263,85.063-2.424,116.314c34.134,32.482,87.671,27.189,122.134-1.663
      c35.934-30.084,43.382-80.929,26.111-123.024c-17.141-41.776-56.408-70.618-101.084-75.633
      c-44.573-5.003-90.377,13.883-121.162,45.788C178.39,224.318,163.55,262.042,163.367,300.541c-0.031,6.45,9.969,6.447,10,0
      c0.214-45.037,22.039-87.732,58.609-114.108c36.28-26.167,86.663-35.121,128.171-16.411
      c41.452,18.685,68.041,61.746,66.394,107.117c-1.681,46.27-40.588,84.033-86.355,86.361c-22.729,1.156-44.27-8.172-59.351-25.112
      c-14.828-16.655-21.39-41.065-15.91-62.757c5.542-21.935,23.99-38.321,45.858-42.875c22.835-4.754,45.241,6.889,54.815,27.988
      c2.611,5.754,3.63,12.238,3.712,18.503c1.667-1.667,3.333-3.333,5-5c-4.797,0-9.595,0-14.392,0c1.667,1.667,3.333,3.333,5,5
      c-0.421-23.304-18.521-41.836-41.727-43.095c-22.436-1.217-43.938,13.916-51.999,34.503c-8.36,21.352-2.229,45.502,11.522,63.095
      c13.944,17.84,36.546,26.585,58.808,25.264c46.238-2.744,81.608-43.188,80.687-88.911c-0.918-45.538-31.88-85.785-74.667-100.245
      c-42.919-14.504-92.285,0.523-125.166,30.009c-33.177,29.75-48.717,74.672-43.57,118.6c4.099,34.981,21.921,65.473,50.667,85.853
      c34.074,24.157,78.073,31.11,118.94,31.207c-1.667-1.667-3.333-3.333-5-5c0,4.795,0,9.589,0,14.384c1.667-1.667,3.333-3.333,5-5
      c-43.148-0.096-88.247-7.736-124.07-33.269c-30.376-21.65-47.455-55.868-50.462-92.637c-0.366-4.479-0.5-8.973-0.516-13.464
      C173.345,294.093,163.345,294.091,163.367,300.541z" />
                        </g>
                    </g>
                </g>
            </svg>
</svg>