<?xml version="1.0" encoding="utf-8"?>
<!-- Generated by IcoMoon.io -->
<!DOCTYPE svg PUBLIC "-//W3C//DTD SVG 1.1//EN" "http://www.w3.org/Graphics/SVG/1.1/DTD/svg11.dtd">
<svg version="1.1" xmlns="http://www.w3.org/2000/svg" xmlns:xlink="http://www.w3.org/1999/xlink" width="256" height="256" viewBox="0 0 460 460">
	<g id="shire">
    <!-- <defs>
                    <linearGradient id="shireGradient" x1="0" y1="0" x2="0" y2="100%">
                        <stop offset="0%" stop-color="#fffbf4" />
                        <stop offset="100%" stop-color="#fffef7" />
                    </linearGradient>
                </defs> -->
                <rect width="100%" height="100%" fill="#fffef7" />
                <svg viewBox="0 10 500 500" enable-background="new 0 0 500 500">
                    <g>
                        <path fill="#FF8F00" d="M354.594,129.04c-2.044-1.839-5.39-1.839-7.434,0l-53.028,47.726c-2.044,1.839-2.044,4.85,0,6.689
        l83.308,74.981c2.044,1.84,1.467,3.345-1.283,3.345h-32.889c-2.75,0-5,2.25-5,5v19.603c0,2.75,2.25,5,5,5h22.103
        c2.75,0,7.25,0,10,0h38.732c2.75,0,5-2.25,5-5v-67.97c0-2.75,2.25-5,5-5h19.239c2.75,0,3.327-1.505,1.283-3.345L354.594,129.04z" />
                        <path fill="#FF8F00" d="M117.538,261.781c-2.75,0-3.186-1.33-0.968-2.957l95.731-70.201c2.218-1.626,2.354-4.455,0.301-6.286
        l-59.749-53.313c-2.052-1.831-5.403-1.824-7.447,0.016l-90.032,81.029c-2.044,1.839-1.466,3.345,1.284,3.345h19.239
        c2.75,0,5,2.25,5,5v67.97c0,2.75,2.25,5,5,5h38.732c2.75,0,7.25,0,10,0h15.799c2.75,0,5-2.25,5-5v-19.603c0-2.75-2.25-5-5-5
        H117.538z" />
                        <path fill="#FFAB40" d="M214.432,397.345c2.75,0,5-2.25,5-5v-81.722c0-2.75,2.25-5,5-5h51.138c2.75,0,5,2.25,5,5v81.722
        c0,2.75,2.25,5,5,5h66.428c2.75,0,5-2.25,5-5V280.054c0-2.75,2.25-5,5-5h35.847c2.75,0,3.327-1.505,1.283-3.345l-145.41-130.865
        c-2.044-1.839-5.389-1.839-7.433,0L100.873,271.709c-2.044,1.84-1.466,3.345,1.284,3.345h35.861c2.75,0,5,2.25,5,5v112.291
        c0,2.75,2.25,5,5,5H214.432z" />
                        <mask maskUnits="userSpaceOnUse" x="99.65" y="139.465" width="300.701" height="257.88" id="shiremask">
                        </mask>
                        <path opacity="0.75" mask="url(#shiremask)" fill="#FF8500" d="M214.432,397.345c2.75,0,5-2.25,5-5v-81.722c0-2.75,2.25-5,5-5
        h51.138c2.75,0,5,2.25,5,5v81.722c0,2.75,2.25,5,5,5h66.428c2.75,0,5-2.25,5-5V280.054c0-2.75,2.25-5,5-5h35.847
        c2.75,0,3.327-1.505,1.283-3.345l-145.41-130.865c-2.044-1.839-5.389-1.839-7.433,0L100.873,271.709
        c-2.044,1.84-1.466,3.345,1.284,3.345h35.861c2.75,0,5,2.25,5,5v112.291c0,2.75,2.25,5,5,5H214.432z" />
                    </g>
                    <g>
                        <path fill="#FF9100" d="M247,408.167c0,2.75-1.949,3.875-4.33,2.5l-18.908-10.917c-2.381-1.375-4.33-4.75-4.33-7.5v-81.721
    c0-2.75,1.949-3.875,4.33-2.5l18.908,10.916c2.381,1.375,4.33,4.75,4.33,7.5V408.167z" />
                    </g>
                </svg>
</g>
</svg>