<?xml version="1.0" encoding="utf-8"?>
<!-- Generated by IcoMoon.io -->
<!DOCTYPE svg PUBLIC "-//W3C//DTD SVG 1.1//EN" "http://www.w3.org/Graphics/SVG/1.1/DTD/svg11.dtd">
<svg version="1.1" xmlns="http://www.w3.org/2000/svg" xmlns:xlink="http://www.w3.org/1999/xlink" width="256" height="256" viewBox="0 0 460 460">
	<svg width="460px" height="460px" viewBox="0 0 720 720" id="slidecinch">
                <!-- <linearGradient id="slidegrad" gradientUnits="userSpaceOnUse" x1="360.0005" y1="736.5" x2="360.0005" y2="-15.4995">
                    <stop offset="0.0815" style="stop-color:#450900" />
                    <stop offset="0.0881" style="stop-color:#470900" />
                    <stop offset="0.2106" style="stop-color:#6A0B00" />
                </linearGradient> -->
                <rect x="-18" y="-15.5" fill="#6A0B00" width="756" height="752" />
                <path fill="#FFFFFF" d="M67.446,653.34c14.375-1.078,25.391-2.723,33.045-4.931c0.343-2.257,0.515-4.821,0.515-7.691
 s-0.074-5.531-0.221-7.985l-26.127-9.494c-1.767-0.637-3.091-1.803-3.974-3.496c-0.883-1.692-1.546-3.912-1.987-6.66
 c-0.982-6.035-1.472-10.646-1.472-13.837c0-5.053,0.122-8.709,0.368-10.966c0.392-4.022,2.968-6.746,7.728-8.17
 c11.137-4.022,24.238-7.334,39.301-9.936l4.49,17.737l-9.421,1.324c-9.323,1.375-17.075,2.847-23.257,4.416
 c-0.197,1.276-0.294,2.944-0.294,5.005c0,4.221,0.098,7.532,0.294,9.936l27.158,11.924c2.992,1.276,5.005,3.508,6.035,6.697
 c0.294,0.933,0.441,1.595,0.441,1.987s-0.037,1.239-0.11,2.539s-0.184,3.03-0.331,5.188c-0.394,5.79-0.883,10.758-1.472,14.903
 c-0.589,4.147-2.024,6.968-4.305,8.464c-2.282,1.497-5.054,2.822-8.317,3.975c-3.264,1.153-6.784,2.196-10.562,3.128
 c-6.134,1.423-14.254,2.87-24.361,4.342L67.446,653.34z" />
                <path fill="#FFFFFF" d="M135.966,563.402l18.252-3.385l0.515,53.064l-2.281,55.346l-15.529,1.325L135.966,563.402z" />
                <path fill="#FFFFFF" d="M192.269,594.756c0.245,5.054,0.368,9.299,0.368,12.732c0,3.435-0.074,7.459-0.221,12.07l-1.693,48.869
 l-15.676,1.325l-1.472-72.643L192.269,594.756z M192.858,557.662c0.54,1.913,0.81,4.061,0.81,6.439
 c0,2.381-0.074,4.393-0.221,6.035c-0.147,1.645-0.32,3.178-0.515,4.601c-0.491,3.091-1.056,5.201-1.693,6.329l-16.928-0.736
 c0.834-4.316,1.251-11.211,1.251-20.681L192.858,557.662z" />
                <path fill="#FFFFFF" d="M265.5,593.946l-0.433-33.929L248,563.182v30.176c-7,0.933-14.999,2.355-22.897,4.269l-7.364,1.767
 c-1.963,0.688-3.192,2.307-3.682,4.857c-2.012,10.55-3.019,21.834-3.019,33.855c0,7.164,0.441,13.936,1.325,20.312
 c0.539,3.779,2.011,5.913,4.415,6.403c3.925,1.08,8.107,2.086,12.549,3.018c14.931,3.133,23.427,4.218,34.047,5.888
 l0.376-15.869l0,0L265.5,593.946z M228.995,634.72c0-5.741,0.711-13.002,2.135-21.785c5.2-1.962,10.77-3.165,16.707-3.606
 l0.058,45.559c-6.968-1.024-13.077-2.226-18.311-3.607C229.19,648.435,228.995,642.914,228.995,634.72z" />
                <path fill="#FFFFFF" d="M284.267,619.411c0-6.574,0.687-10.377,2.061-11.408c1.373-1.03,2.918-2.072,4.636-3.128
 c1.717-1.054,3.606-2.097,5.667-3.128c2.061-1.03,4.207-2.011,6.44-2.943c2.232-0.932,4.427-1.767,6.587-2.503
 c4.611-1.569,8.059-2.354,10.34-2.354c2.282,0,4.133,0.11,5.557,0.331c1.423,0.221,2.723,0.577,3.901,1.067
 c2.698,1.129,4.219,2.772,4.563,4.931c1.619,10.256,2.429,22.473,2.429,36.652v4.342l-35.253,0.442v9.567
 c3.827,0.933,8.39,1.792,13.689,2.576l12.659,2.061c3.238,0.491,6.55,1.056,9.936,1.692l-4.342,16.118
 c-13.494-2.11-27.82-5.52-42.982-10.229c-3.484-1.129-5.275-3.165-5.373-6.109L284.267,619.411z M319.889,625.446
 c0-4.611-0.467-9.469-1.398-14.572c-1.963,0-3.533,0.099-4.71,0.294c-1.178,0.197-2.355,0.467-3.533,0.81
 c-1.178,0.344-2.381,0.736-3.606,1.178c-2.896,1.03-4.809,1.914-5.741,2.649v13.248l18.988-2.061V625.446z" />
                <path fill="#FFFFFF" d="M363.938,663.681c-2.037-0.711-3.301-1.251-3.791-1.619s-0.934-0.847-1.324-1.436
 c-2.209-3.336-3.803-13.247-4.785-29.733c-0.246-3.68-0.367-7.286-0.367-10.819c0-3.532,0.074-6.808,0.221-9.825
 s0.342-5.875,0.588-8.574c0.541-6.083,1.031-9.739,1.473-10.966l0.883-2.797c0.785-2.355,2.576-4.097,5.373-5.226
 c1.227-0.49,2.82-1.055,4.783-1.692l6.477-2.208c2.404-0.736,4.906-1.473,7.508-2.208l7.508-2.208
 c5.053-1.423,9.32-2.503,12.805-3.238l3.975,17.884c-1.227,0.295-2.723,0.614-4.488,0.957l-17.959,3.386l-5.078,1.03
 c-1.473,0.344-2.576,0.614-3.312,0.81c-1.373,5.496-2.061,13.469-2.061,23.92c0,13.641,0.834,23.698,2.502,30.175
 c2.062,0.491,4.293,0.982,6.697,1.472l15.162,3.092l7.139,1.324l-4.121,17.002c-4.416-0.786-8.439-1.619-12.07-2.503
 C373.886,666.393,365.974,664.393,363.938,663.681z" />
                <path fill="#FFFFFF" d="M438.604,594.756c0.244,5.054,0.367,9.299,0.367,12.732c0,3.435-0.073,7.459-0.221,12.07l-1.692,48.869
 l-15.677,1.325l-1.472-72.643L438.604,594.756z M439.192,557.662c0.539,1.913,0.81,4.061,0.81,6.439
 c0,2.381-0.074,4.393-0.222,6.035c-0.146,1.645-0.319,3.178-0.515,4.601c-0.491,3.091-1.056,5.201-1.692,6.329l-16.928-0.736
 c0.833-4.316,1.251-11.211,1.251-20.681L439.192,557.662z" />
                <path fill="#FFFFFF" d="M458.843,598.067l15.677-1.987l2.575,11.188l12.954-11.188h18.104c0.932,0,2.232,0.712,3.901,2.135
 c2.797,2.307,4.195,4.367,4.195,6.183l-2.576,64.178l-16.413,1.324l-0.294-56.817c-0.589-0.196-1.398-0.295-2.429-0.295
 s-1.976,0.05-2.834,0.147c-0.858,0.099-1.778,0.246-2.76,0.441c-2.307,0.394-4.195,0.859-5.667,1.398l-5.446,1.987l-1.987,51.077
 l-15.676,1.178L458.843,598.067z" />
                <path fill="#FFFFFF" d="M540.463,664.969c-2.699-0.884-4.269-2.919-4.71-6.108c-0.982-6.771-1.473-12.965-1.473-18.584
 c0-5.618,0.062-9.789,0.185-12.512c0.122-2.724,0.306-5.36,0.552-7.912c0.883-10.646,2.085-16.878,3.606-18.693
 c0.784-0.981,2.072-1.73,3.863-2.245c1.791-0.516,4.195-1.055,7.213-1.619c3.018-0.563,6.207-1.104,9.568-1.619
 c3.36-0.516,6.672-0.994,9.936-1.436c3.263-0.441,6.047-0.833,8.354-1.178l2.576,16.561l-5.667,0.588
 c-10.501,1.08-17.198,1.987-20.093,2.724c-0.785,3.043-1.325,7.312-1.619,12.806c-0.295,5.496-0.441,9.52-0.441,12.07
 c0,6.33,0.245,11.065,0.735,14.205l28.115,5.226l-4.343,15.823c-4.023-0.639-7.801-1.325-11.334-2.061l-8.905-1.84
 C548.533,667.397,543.161,665.999,540.463,664.969z" />
                <path fill="#FFFFFF" d="M632.02,627.581c0-7.017-0.294-12.145-0.883-15.383h-5.152c-2.943,0-5.226,0.295-6.845,0.884
 c-2.601,0.883-4.686,1.692-6.256,2.429l-1.104,52.034l-15.971,0.883c-0.147-18.89-0.418-33.168-0.81-42.834
 c-0.589-13.002-0.884-24.238-0.884-33.708c0-6.378,0.122-15.824,0.368-28.336l17.59-3.68l0.81,46.588l11.702-10.378h16.339
 c1.815,0,3.483,0.688,5.005,2.062c2.698,2.502,4.097,4.71,4.195,6.623c0.098,1.914,0.147,3.853,0.147,5.814v5.741
 c0,6.575-0.099,11.285-0.295,14.131l-2.281,40.553l-16.339,2.723L632.02,627.581z" />
                <path fill="none" d="M588.648,447.403c-0.603,0.074-1.194,0.293-1.71,0.691l-13.448,10.399c-0.516,0.398-0.876,0.917-1.1,1.481
 c-0.439,1.111-0.312,2.414,0.472,3.428c0.689,0.893,1.725,1.359,2.771,1.359c0.747,0,1.501-0.238,2.138-0.731l13.448-10.399
 c1.529-1.183,1.811-3.381,0.628-4.909C591.064,447.709,589.835,447.257,588.648,447.403z" />
                <path fill="none" d="M465.155,371.614l65.213-50.432c2.423-1.874,5.825-1.803,8.166,0.172l31.061,26.183L601.025,92.5H118.288
 l42.162,311h314.52l-11.678-23.89C461.938,376.84,462.717,373.5,465.155,371.614z M392.73,355.304
 c-0.647,0-1.306-0.118-1.945-0.368c-2.755-1.075-4.117-4.18-3.042-6.935c10.076-25.818,30.179-51.292,56.605-71.728
 c26.427-20.437,56.138-33.485,83.658-36.742c2.921-0.355,5.599,1.751,5.946,4.688s-1.751,5.599-4.688,5.947
 c-53.095,6.283-112.105,51.919-131.545,101.729C396.895,354.01,394.872,355.304,392.73,355.304z M426.348,351.585
 c-0.647,0-1.307-0.118-1.945-0.368c-2.755-1.075-4.117-4.18-3.042-6.935c6.807-17.44,20.358-34.626,38.157-48.391
 c17.801-13.766,37.842-22.558,56.432-24.756c2.938-0.35,5.599,1.751,5.946,4.688c0.348,2.937-1.752,5.599-4.688,5.946
 c-34.658,4.1-73.18,33.89-85.87,66.406C430.511,350.292,428.489,351.585,426.348,351.585z M458.16,345.431
 c-2.755-1.075-4.117-4.18-3.042-6.935c7.023-18,27.555-33.877,46.74-36.146c2.937-0.353,5.599,1.751,5.946,4.688
 s-1.752,5.599-4.688,5.946c-15.087,1.784-32.498,15.249-38.021,29.403c-0.825,2.116-2.848,3.41-4.989,3.41
 C459.458,345.799,458.8,345.681,458.16,345.431z" />
                <polygon fill="none" points="567.697,362.939 534.169,334.677 477.297,378.658 489.439,403.5 498.238,421.5 527.52,481.403 
 621.768,408.518 584.124,376.786  " />
                <path fill="#FFFFFF" d="M465.095,342.389c5.523-14.154,22.935-27.62,38.021-29.403c2.937-0.347,5.036-3.009,4.688-5.946
 s-3.01-5.042-5.946-4.688c-19.186,2.268-39.717,18.145-46.74,36.146c-1.075,2.755,0.287,5.859,3.042,6.935
 c0.64,0.25,1.298,0.368,1.945,0.368C462.247,345.799,464.27,344.505,465.095,342.389z" />
                <path fill="#FFFFFF" d="M517.207,281.77c2.937-0.347,5.036-3.01,4.688-5.946c-0.348-2.937-3.008-5.039-5.946-4.688
 c-18.59,2.199-38.631,10.991-56.432,24.756c-17.799,13.765-31.351,30.951-38.157,48.391c-1.075,2.755,0.287,5.86,3.042,6.935
 c0.639,0.25,1.298,0.368,1.945,0.368c2.142,0,4.163-1.294,4.989-3.409C444.027,315.66,482.549,285.87,517.207,281.77z" />
                <path fill="#FFFFFF" d="M529.265,250.166c2.938-0.348,5.036-3.01,4.688-5.947s-3.025-5.043-5.946-4.688
 c-27.521,3.257-57.231,16.305-83.658,36.742c-26.427,20.437-46.529,45.91-56.605,71.728c-1.075,2.755,0.287,5.86,3.042,6.935
 c0.64,0.25,1.298,0.368,1.945,0.368c2.142,0,4.164-1.294,4.989-3.409C417.159,302.084,476.17,256.449,529.265,250.166z" />
                <path fill="#FFFFFF" d="M651.161,416.293l-65.139-54.909L619.165,92.5H622c6.903,0,12.5-5.596,12.5-12.5s-5.597-12.5-12.5-12.5H97
 c-6.904,0-12.5,5.596-12.5,12.5S90.096,92.5,97,92.5h3.119l42.441,313H140c-4.418,0-8,3.582-8,8s3.582,8,8,8h4.729H335v67.551
 l-60.228,31.605c-2.445,1.283-3.387,4.306-2.104,6.751c0.894,1.704,2.632,2.678,4.432,2.678c0.783,0,1.578-0.185,2.319-0.573
 l65.905-34.584c0.533-0.279,0.98-0.653,1.362-1.074c0.456,0.855,1.163,1.59,2.087,2.074l65.904,34.584
 c0.741,0.389,1.536,0.573,2.319,0.573c1.799,0,3.537-0.974,4.432-2.678c1.283-2.445,0.341-5.468-2.104-6.751L355,487.902V421.5
 h128.768l44.096,90.211c0.858,1.756,2.461,3.032,4.364,3.476c0.489,0.114,0.983,0.17,1.476,0.17c1.426,0,2.827-0.47,3.977-1.358
 l113.269-87.594c1.554-1.201,2.48-3.041,2.522-5.005C653.512,419.436,652.663,417.559,651.161,416.293z M160.45,403.5l-42.162-311
 h482.738l-31.431,255.037l-31.061-26.183c-2.341-1.975-5.743-2.045-8.166-0.172l-65.213,50.432
 c-2.438,1.886-3.217,5.226-1.863,7.996l11.678,23.89H160.45z M591.22,453.632l-13.448,10.399
 c-0.637,0.493-1.391,0.731-2.138,0.731c-1.047,0-2.082-0.467-2.771-1.359c-0.784-1.014-0.911-2.316-0.472-3.428
 c0.224-0.564,0.584-1.083,1.1-1.481l13.448-10.399c0.516-0.398,1.107-0.617,1.71-0.691c1.187-0.146,2.416,0.306,3.199,1.319
 C593.03,450.251,592.749,452.449,591.22,453.632z M527.52,481.403L498.238,421.5l-8.799-18l-12.143-24.842l56.872-43.981
 l33.528,28.262l16.427,13.847l37.644,31.731L527.52,481.403z" />
            </svg>
</svg>